<svg id="Camera" xmlns="http://www.w3.org/2000/svg" width="10" height="9" viewBox="0 0 10 9">
  <path id="Camera-2" data-name="Camera" d="M2.182,9A2.183,2.183,0,0,1,0,6.821V3.857A2.169,2.169,0,0,1,2.156,1.679l.039,0a.107.107,0,0,0,.082-.059L2.523,1.1,2.716.7A1.213,1.213,0,0,1,3.823,0H6.177A1.211,1.211,0,0,1,7.284.7c.029.057.064.127.117.237l.322.676a.112.112,0,0,0,.106.061l.106,0A2.178,2.178,0,0,1,10,3.857V6.821A2.182,2.182,0,0,1,7.819,9Zm1.2-7.956c-.03.059-.067.133-.112.227l-.317.666a.861.861,0,0,1-.689.485l-.085,0A1.432,1.432,0,0,0,.75,3.857V6.821a1.432,1.432,0,0,0,1.431,1.43H7.819A1.432,1.432,0,0,0,9.25,6.821V3.857A1.425,1.425,0,0,0,7.905,2.429l-.162-.005a.86.86,0,0,1-.7-.487L6.7,1.2l-.08-.161A.463.463,0,0,0,6.174.749H3.829A.465.465,0,0,0,3.384,1.044ZM5,7.127A1.969,1.969,0,0,1,3.036,5.164,1.929,1.929,0,0,1,3.6,3.782,1.953,1.953,0,0,1,5,3.2l.1,0A1.965,1.965,0,0,1,5,7.127ZM4.922,3.949A1.225,1.225,0,0,0,3.786,5.161,1.213,1.213,0,1,0,5,3.947Zm2.53.044a.54.54,0,0,1-.15-.039.5.5,0,0,1-.161-.11A.51.51,0,0,1,7,3.5a.489.489,0,0,1,.041-.2.522.522,0,0,1,.118-.171.577.577,0,0,1,.152-.1.512.512,0,0,1,.541.108.472.472,0,0,1,.095.131l.012.029A.489.489,0,0,1,8,3.5a.509.509,0,0,1-.146.352.5.5,0,0,1-.3.144L7.5,4Z" fill="#415380"/>
</svg>
