<svg xmlns="http://www.w3.org/2000/svg" width="18.17" height="18.17" viewBox="0 0 18.17 18.17">
  <g id="Iconly_Light_Category" data-name="Iconly/Light/Category" transform="translate(0.75 0.75)">
    <g id="Category">
      <path id="Stroke_1" data-name="Stroke 1" d="M2.041,0H4.764A2.05,2.05,0,0,1,6.8,2.059V4.8a2.05,2.05,0,0,1-2.04,2.059H2.041A2.051,2.051,0,0,1,0,4.8V2.059A2.05,2.05,0,0,1,2.041,0Z" transform="translate(9.866)" fill="none" stroke="#424242" stroke-linecap="round" stroke-linejoin="round" stroke-miterlimit="10" stroke-width="1.5"/>
      <path id="Stroke_3" data-name="Stroke 3" d="M2.041,0H4.763A2.05,2.05,0,0,1,6.8,2.059V4.8A2.051,2.051,0,0,1,4.763,6.863H2.041A2.051,2.051,0,0,1,0,4.8V2.059A2.05,2.05,0,0,1,2.041,0Z" fill="none" stroke="#424242" stroke-linecap="round" stroke-linejoin="round" stroke-miterlimit="10" stroke-width="1.5"/>
      <path id="Stroke_5" data-name="Stroke 5" d="M2.041,0H4.763A2.05,2.05,0,0,1,6.8,2.06V4.8A2.05,2.05,0,0,1,4.763,6.863H2.041A2.05,2.05,0,0,1,0,4.8V2.06A2.05,2.05,0,0,1,2.041,0Z" transform="translate(0 9.807)" fill="none" stroke="#424242" stroke-linecap="round" stroke-linejoin="round" stroke-miterlimit="10" stroke-width="1.5"/>
      <path id="Stroke_7" data-name="Stroke 7" d="M2.041,0H4.764A2.05,2.05,0,0,1,6.8,2.06V4.8a2.05,2.05,0,0,1-2.04,2.059H2.041A2.05,2.05,0,0,1,0,4.8V2.06A2.05,2.05,0,0,1,2.041,0Z" transform="translate(9.866 9.807)" fill="none" stroke="#424242" stroke-linecap="round" stroke-linejoin="round" stroke-miterlimit="10" stroke-width="1.5"/>
    </g>
  </g>
</svg>
