<svg id="Iconly_Light-outline_Category" data-name="Iconly/Light-outline/Category" xmlns="http://www.w3.org/2000/svg" width="11" height="11" viewBox="0 0 11 11">
  <g id="Category">
    <path id="Category-2" data-name="Category" d="M7.692,11A1.644,1.644,0,0,1,6.056,9.353V7.668A1.644,1.644,0,0,1,7.692,6.02H9.364A1.644,1.644,0,0,1,11,7.668V9.353A1.643,1.643,0,0,1,9.364,11ZM6.823,7.668V9.353a.876.876,0,0,0,.869.88H9.364a.876.876,0,0,0,.869-.88V7.668a.876.876,0,0,0-.869-.881H7.692A.876.876,0,0,0,6.823,7.668ZM1.636,11A1.644,1.644,0,0,1,0,9.353V7.668A1.644,1.644,0,0,1,1.636,6.02H3.308A1.644,1.644,0,0,1,4.944,7.668V9.353A1.644,1.644,0,0,1,3.308,11ZM.767,7.668V9.353a.876.876,0,0,0,.869.88H3.308a.876.876,0,0,0,.869-.88V7.668a.876.876,0,0,0-.869-.881H1.636A.876.876,0,0,0,.767,7.668ZM7.692,4.98A1.644,1.644,0,0,1,6.056,3.333V1.647A1.644,1.644,0,0,1,7.692,0H9.364A1.643,1.643,0,0,1,11,1.647V3.333A1.643,1.643,0,0,1,9.364,4.98ZM6.823,1.647V3.333a.876.876,0,0,0,.869.88H9.364a.876.876,0,0,0,.869-.88V1.647a.876.876,0,0,0-.869-.88H7.692A.876.876,0,0,0,6.823,1.647ZM1.636,4.98A1.644,1.644,0,0,1,0,3.333V1.647A1.644,1.644,0,0,1,1.636,0H3.308A1.644,1.644,0,0,1,4.944,1.647V3.333A1.644,1.644,0,0,1,3.308,4.98ZM.767,1.647V3.333a.876.876,0,0,0,.869.88H3.308a.876.876,0,0,0,.869-.88V1.647a.876.876,0,0,0-.869-.88H1.636A.876.876,0,0,0,.767,1.647Z" fill="#415380"/>
  </g>
</svg>
