<svg id="Group_1823" data-name="Group 1823" xmlns="http://www.w3.org/2000/svg" width="19" height="19" viewBox="0 0 19 19">
  <path id="Fill_1" data-name="Fill 1" d="M2.412,0H5.628A2.422,2.422,0,0,1,8.04,2.432V5.676A2.422,2.422,0,0,1,5.628,8.108H2.412A2.422,2.422,0,0,1,0,5.676V2.432A2.422,2.422,0,0,1,2.412,0" transform="translate(10.96)" fill="#feba30" opacity="0.4"/>
  <path id="Combined_Shape" data-name="Combined Shape" d="M13.371,19a2.422,2.422,0,0,1-2.411-2.432V13.324a2.422,2.422,0,0,1,2.411-2.432h3.217A2.422,2.422,0,0,1,19,13.324v3.244A2.422,2.422,0,0,1,16.589,19ZM2.412,19A2.422,2.422,0,0,1,0,16.568V13.324a2.422,2.422,0,0,1,2.412-2.432H5.629A2.422,2.422,0,0,1,8.04,13.324v3.244A2.422,2.422,0,0,1,5.629,19Zm0-10.892A2.422,2.422,0,0,1,0,5.676V2.432A2.422,2.422,0,0,1,2.412,0H5.629A2.421,2.421,0,0,1,8.04,2.432V5.676A2.421,2.421,0,0,1,5.629,8.108Z" fill="#feba30"/>
</svg>
