<svg xmlns="http://www.w3.org/2000/svg" width="296.93" height="224.473" viewBox="0 0 296.93 224.473">
  <g id="Curious-rafiki" transform="translate(0 -49.57)">
    <g id="freepik--background-complete--inject-48" transform="translate(0 52.795)">
      <rect id="Rectangle_1576" data-name="Rectangle 1576" width="296.93" height="0.148" transform="translate(0 194.43)" fill="#ebebeb"/>
      <rect id="Rectangle_1577" data-name="Rectangle 1577" width="15.44" height="0.148" transform="translate(103.593 200.083)" fill="#ebebeb"/>
      <rect id="Rectangle_1578" data-name="Rectangle 1578" width="32.128" height="0.148" transform="translate(31.154 198.474)" fill="#ebebeb"/>
      <rect id="Rectangle_1579" data-name="Rectangle 1579" width="15.63" height="0.148" transform="translate(87.369 205.6)" fill="#ebebeb"/>
      <rect id="Rectangle_1580" data-name="Rectangle 1580" width="23.06" height="0.148" transform="translate(153.352 204.602)" fill="#ebebeb"/>
      <rect id="Rectangle_1581" data-name="Rectangle 1581" width="6.348" height="0.148" transform="translate(181.697 204.602)" fill="#ebebeb"/>
      <rect id="Rectangle_1582" data-name="Rectangle 1582" width="32.401" height="0.148" transform="translate(234.782 202.096)" fill="#ebebeb"/>
      <path id="Path_736" data-name="Path 736" d="M156.263,222.943H41.595a3.391,3.391,0,0,1-3.385-3.391V58.361A3.391,3.391,0,0,1,41.6,55H156.263a3.391,3.391,0,0,1,3.391,3.391V219.552A3.391,3.391,0,0,1,156.263,222.943ZM41.595,55.119a3.242,3.242,0,0,0-3.237,3.242V219.552a3.242,3.242,0,0,0,3.237,3.242H156.263a3.248,3.248,0,0,0,3.242-3.242V58.361a3.248,3.248,0,0,0-3.242-3.242Z" transform="translate(-15.519 -55)" fill="#ebebeb"/>
      <path id="Path_737" data-name="Path 737" d="M372.565,222.943H257.891a3.4,3.4,0,0,1-3.391-3.391V58.361A3.4,3.4,0,0,1,257.891,55H372.565a3.391,3.391,0,0,1,3.379,3.361V219.552A3.391,3.391,0,0,1,372.565,222.943ZM257.891,55.119a3.248,3.248,0,0,0-3.242,3.242V219.552a3.248,3.248,0,0,0,3.242,3.242H372.565a3.248,3.248,0,0,0,3.242-3.242V58.361a3.248,3.248,0,0,0-3.242-3.242Z" transform="translate(-103.363 -55)" fill="#ebebeb"/>
      <path id="Path_738" data-name="Path 738" d="M204.886,345.9s-9.419-11.248-10.517-23.089c-1.6-17.151,15.571,3.6,20.678-.814s-11.052-24.847,2.037-28.814,16.254,11.04,21.432,22.014c8.486,17.994,9.039-27.686,23.291-5.76,9.294,14.3,4.288,36.457,4.288,36.457Z" transform="translate(-78.899 -151.472)" fill="#f5f5f5"/>
      <path id="Path_739" data-name="Path 739" d="M308.02,349.33s-9.983-10.167-7.18-20.9c4.062-15.559,10.689,3.266,15.939-.736s-.742-22.531,10.4-26.13,8.944,10.012,9.5,19.971c.909,16.307,15.345-25.1,19.419-5.208,2.655,12.964-8.908,32.995-8.908,32.995Z" transform="translate(-121.982 -154.9)" fill="#f5f5f5"/>
      <path id="Path_740" data-name="Path 740" d="M353.76,371.67c.457-1.134,1.871-9.246,14.906-15.69-5.6,7.477-7.126,13.065-6.835,15.69Z" transform="translate(-143.676 -177.24)" fill="#e0e0e0"/>
      <path id="Path_741" data-name="Path 741" d="M95.741,366.24c-.036-1.71-1.407-16.284-14.561-23.63,3.991,11.283,3.112,19.722,1.306,23.63Z" transform="translate(-32.97 -171.81)" fill="#f5f5f5"/>
      <path id="Path_742" data-name="Path 742" d="M84.059,371.8c-.327-1.122-.653-9.14-13.659-15.506,4.905,7.388,5.707,12.94,5.03,15.506Z" transform="translate(-28.592 -177.366)" fill="#f5f5f5"/>
      <path id="Path_743" data-name="Path 743" d="M169.58,372.527c0-1.045.689-9.947,7.126-14.437-1.954,6.877-1.52,12.049-.635,14.437Z" transform="translate(-68.873 -178.097)" fill="#f5f5f5"/>
      <path id="Path_744" data-name="Path 744" d="M175.6,375.922c.154-.689.315-5.582,6.687-9.472-2.375,4.513-2.791,7.9-2.459,9.472Z" transform="translate(-71.318 -181.492)" fill="#f5f5f5"/>
      <path id="Path_745" data-name="Path 745" d="M230,369.586c-.362-1.36-.725-11.04-15.244-18.736,5.469,8.908,6.36,15.636,5.612,18.736Z" transform="translate(-87.223 -175.157)" fill="#e0e0e0"/>
      <path id="Path_746" data-name="Path 746" d="M243.167,372.714c.107-1.027,2.524-8.35-6.307-14.164,1.645,6.752.451,11.824-.98,14.164Z" transform="translate(-95.8 -178.284)" fill="#e0e0e0"/>
      <path id="Path_747" data-name="Path 747" d="M356.308,374.557c-.107-.831.475-6.758-7.768-11.467,2.6,5.464,2.589,9.573,1.871,11.467Z" transform="translate(-141.556 -180.128)" fill="#fff"/>
      <path id="Path_748" data-name="Path 748" d="M311.355,133.23c10.779-3.266-4.525-10.689-21.409-11.414-39.872-1.746-49.623-10.689-77.879-13.8-8.8-.968-2.732,12.138,17.644,17.911,25.809,7.31,70.533,3.047,59.594,7.637s.665,18.291,23.671,14.116c17.816-3.231,42.9,11.242,33.9-1.283-5.7-7.922-19.075-5.036-25.257-5.606S295.41,138.065,311.355,133.23Z" transform="translate(-84.537 -76.511)" fill="#f5f5f5"/>
      <path id="Path_749" data-name="Path 749" d="M335.175,190.878c-3.777,1.491-13.255-1.74-19.277-1.633s-15.363,2.375-20.233-2.476,20.346-2.049,25.536-1.58C330.828,186.05,340.7,188.734,335.175,190.878Z" transform="translate(-119.83 -107.375)" fill="#fafafa"/>
      <path id="Path_750" data-name="Path 750" d="M396.116,78.675c2.067-2.037,7.762,1.74,11.224,1.378s8.682-3.563,11.842,2.423-11.58,3.361-14.6,2.969C398.973,84.691,393.088,81.662,396.116,78.675Z" transform="translate(-160.544 -64.369)" fill="#f5f5f5"/>
      <path id="Path_751" data-name="Path 751" d="M68.376,147.975c2.067-2.037,7.762,1.74,11.224,1.378s8.682-3.593,11.842,2.423-11.574,3.361-14.6,2.969C71.233,153.991,65.348,150.962,68.376,147.975Z" transform="translate(-27.436 -92.515)" fill="#f5f5f5"/>
      <path id="Path_752" data-name="Path 752" d="M97.476,72.227c5.4,4.193,20.589.837,29.729,3.011s22.834,9.71,31.385,1.639-30.5-10.689-38.506-11.456C105.238,64.014,89.56,66.093,97.476,72.227Z" transform="translate(-38.726 -59.061)" fill="#fafafa"/>
      <path id="Path_753" data-name="Path 753" d="M171.652,197.8c7.69-10.9-4.691-87.1-21.343-92.048s-17.638,80.694-11.6,90.86C145.516,208.089,163.285,209.674,171.652,197.8Z" transform="translate(-54.959 -75.528)" fill="#ebebeb"/>
      <path id="Path_754" data-name="Path 754" d="M168.45,224h0a2.649,2.649,0,0,1,2.637,2.375,499.647,499.647,0,0,1-.226,91.668H165.57a500.278,500.278,0,0,0,.255-91.169A2.631,2.631,0,0,1,168.45,224Z" transform="translate(-67.245 -123.638)" fill="#e0e0e0"/>
      <path id="Path_755" data-name="Path 755" d="M401.189,279.277c-4.294-6.087,2.625-48.649,11.925-51.416s9.852,45.074,6.485,50.757A11.1,11.1,0,0,1,401.189,279.277Z" transform="translate(-162.41 -125.159)" fill="#ebebeb"/>
      <path id="Path_756" data-name="Path 756" d="M425.706,283.63a1.188,1.188,0,0,1-.5-1.942l2.233-2.565a1.219,1.219,0,0,1,1.841,1.6l-2.233,2.565A1.188,1.188,0,0,1,425.706,283.63Z" transform="translate(-172.561 -145.855)" fill="#fff"/>
      <path id="Path_757" data-name="Path 757" d="M410.639,261.876a1.188,1.188,0,0,1-1.081-.849l-1.188-3.664a1.219,1.219,0,0,1,2.322-.742l1.188,3.67a1.223,1.223,0,0,1-.784,1.556A1.307,1.307,0,0,1,410.639,261.876Z" transform="translate(-165.832 -136.542)" fill="#fff"/>
      <path id="Path_758" data-name="Path 758" d="M414.881,293.92h0a1.485,1.485,0,0,0-1.473,1.342,279.3,279.3,0,0,0,.125,51.2H416.5a279.113,279.113,0,0,1-.143-50.941,1.473,1.473,0,0,0-1.479-1.6Z" transform="translate(-167.449 -152.035)" fill="#e0e0e0"/>
      <path id="Path_759" data-name="Path 759" d="M151.469,211.852a2.026,2.026,0,0,1-.784-.154l-10.268-4.216a2.08,2.08,0,0,1,1.58-3.848l10.268,4.216a2.078,2.078,0,0,1-.8,4Z" transform="translate(-56.505 -115.302)" fill="#fff"/>
      <path id="Path_760" data-name="Path 760" d="M181.446,193.9a2.049,2.049,0,0,1-.742-.137,2.084,2.084,0,0,1-1.188-2.684l2.078-5.428a2.079,2.079,0,0,1,3.884,1.485l-2.079,5.428a2.078,2.078,0,0,1-1.954,1.336Z" transform="translate(-72.853 -107.521)" fill="#fff"/>
      <path id="Path_761" data-name="Path 761" d="M153.843,170.205a2.079,2.079,0,0,1-1.936-1.318l-2.375-6.117a2.079,2.079,0,1,1,3.872-1.514l2.375,6.117a2.073,2.073,0,0,1-1.188,2.69,2,2,0,0,1-.748.143Z" transform="translate(-60.673 -97.618)" fill="#fff"/>
    </g>
    <g id="freepik--Shadow--inject-48" transform="translate(33.321 260.598)">
      <ellipse id="freepik--path--inject-48" cx="115.143" cy="6.722" rx="115.143" ry="6.722" transform="translate(0 0)" fill="#f5f5f5"/>
    </g>
    <g id="freepik--Plant--inject-48" transform="translate(63.353 178.016)">
      <path id="Path_762" data-name="Path 762" d="M150.782,364.081a.315.315,0,0,1-.178-.053c-6.046-4.032-3.813-8.617-1.229-13.926,3.349-6.895,7.524-15.476-3.563-27.145-9.436-9.917-14.021-19.419-12.9-26.759a12.311,12.311,0,0,1,6.461-9.134.336.336,0,0,1,.315.594,11.687,11.687,0,0,0-6.146,8.664c-1.081,7.126,3.444,16.456,12.744,26.225,11.408,11.99,7.126,20.785,3.688,27.864-2.554,5.25-4.573,9.395,1.01,13.112a.327.327,0,0,1,.089.445.339.339,0,0,1-.285.113Z" transform="translate(-117.265 -274.456)" fill="#263238"/>
      <path id="Path_763" data-name="Path 763" d="M138.8,280.231c3.961-4.395,2.453-10.915,1.075-14.371C136.77,267.131,134.246,275.332,138.8,280.231Z" transform="translate(-118.716 -265.86)" fill="#263238"/>
      <path id="Path_764" data-name="Path 764" d="M126.758,320.588c-5.137-9.745-14.692-10.957-20.078-11.408C109.869,315.606,118.254,323.593,126.758,320.588Z" transform="translate(-106.68 -283.454)" fill="#263238"/>
      <path id="Path_765" data-name="Path 765" d="M149.865,380.746c6.823-11.2-4.965-19.294-11.165-27.466C136.313,361.535,138.077,375.728,149.865,380.746Z" transform="translate(-119.311 -301.365)" fill="#263238"/>
      <path id="Path_766" data-name="Path 766" d="M152.182,333.934c-8.278-9.692-6.384-16.717-4.157-21.254C152.5,318.423,159.225,328.607,152.182,333.934Z" transform="translate(-122.697 -284.875)" fill="#263238"/>
      <path id="Path_767" data-name="Path 767" d="M136.37,292.922c2.411-2.862,6.586-2.441,8.848-1.847C144.678,293.141,139.791,295.4,136.37,292.922Z" transform="translate(-118.738 -275.925)" fill="#263238"/>
      <path id="Path_768" data-name="Path 768" d="M166.41,374.1c.909-7.394,4.157-6.818,6.651-10.1a7.987,7.987,0,0,1-6.651,10.1Z" transform="translate(-130.939 -305.719)" fill="#263238"/>
    </g>
    <g id="freepik--Character--inject-48" transform="translate(60.217 72.902)">
      <path id="Path_769" data-name="Path 769" d="M312.364,124.236c-4,.92-9.686,3.171-14.728,5.184a6.776,6.776,0,0,0,.131-1.146c-.261.469-.523.932-.778,1.407l-.19.077a6.878,6.878,0,0,0-.107-1.52,4.377,4.377,0,0,1-.849,1.847.8.8,0,0,1-.065.083l-1.01.41a12.845,12.845,0,0,0,0-3.058,21.22,21.22,0,0,1-.463,2.868c-.036.143-.065.285-.107.434l-1.312.54c-.089-.362-.184-.725-.279-1.087l-.475,1.425-.546.226a9.312,9.312,0,0,0-.374-1.609,12.094,12.094,0,0,1-.321,1.9l-.445.19a15.386,15.386,0,0,0-.344-2.9c-.089.742-.178,1.473-.261,2.209l-.125.992c-1.954.831-3.177,1.372-3.177,1.372s-.143-7.067,0-17.78,2.274-19.479,6.645-23.754,13.694-5.03,18.095-1.229,5.642,12.72,3.973,21.432C314.282,117.792,323.605,121.646,312.364,124.236Z" transform="translate(-176.566 -88.858)" fill="#263238"/>
      <path id="Path_770" data-name="Path 770" d="M264.116,226.326l.416-1.265a3.563,3.563,0,0,1,2.084-2.2l5.493-2.168,2.75,1.342c-.736,3-4.121,6.028-4.121,6.028l-.861.944a2.441,2.441,0,0,1-2.969.558l-2.067-1.188A1.687,1.687,0,0,1,264.116,226.326Z" transform="translate(-167.441 -142.401)" fill="#b55b52"/>
      <path id="Path_771" data-name="Path 771" d="M298.908,168.4c-.107,1-.22,1.883-.356,2.8s-.3,1.823-.457,2.726c-.339,1.782-.725,3.611-1.188,5.4s-.962,3.563-1.538,5.345-1.247,3.533-1.978,5.279l-.1.243a2.9,2.9,0,0,1-.594.9,30.349,30.349,0,0,1-4,3.367c-1.33.986-2.7,1.865-4.056,2.72s-2.75,1.645-4.157,2.375-2.809,1.485-4.294,2.15a2.043,2.043,0,0,1-2.209-3.379h.03c1.146-1.027,2.334-2.049,3.5-3.058s2.34-2.019,3.48-3.035,2.269-2.031,3.343-3.041a32.068,32.068,0,0,0,2.862-3l-.689,1.134c.5-1.586.962-3.195,1.384-4.834s.8-3.3,1.134-4.977.665-3.355.956-5.048l.422-2.53.386-2.476v-.119a4.081,4.081,0,0,1,8.094,1.051Z" transform="translate(-171.217 -119.288)" fill="#b55b52"/>
      <path id="Path_772" data-name="Path 772" d="M308.332,152.29c-11.123,1.366-13.023,22.567-12.014,26.825,1.568,3.664,8.391,1.782,8.391,1.782S315.524,164.814,308.332,152.29Z" transform="translate(-180.468 -114.621)" fill="#263238"/>
      <path id="Path_773" data-name="Path 773" d="M305.546,197.935a7.049,7.049,0,0,1-1,1.7.267.267,0,0,1-.125.089c-.594.255-4.87,1.888-8.451-.54a.344.344,0,0,1-.137-.166,7.375,7.375,0,0,1-.451-2.874.35.35,0,0,1,.463-.321,26.065,26.065,0,0,0,9.353,1.621.35.35,0,0,1,.344.487Z" transform="translate(-180.183 -132.295)" fill="#fff"/>
      <path id="Path_774" data-name="Path 774" d="M387.886,411.194c5.422,0,5.024-.083,8.065-.19,2.6-.089,3.254.238,5.345.19,1.752-.042,1.562-1.716.873-3.646-.344-.968-.849-2.156-1.342-3.718h-8.243a7.474,7.474,0,0,1-6.087,4.157C383.6,408.367,385.718,411.194,387.886,411.194Z" transform="translate(-216.617 -216.781)" fill="#263238"/>
      <path id="Path_775" data-name="Path 775" d="M312.953,406.954c6.895,0,7.554-2.969,10.1-4.543,2.2-1.342,3.07-.968,5.345-2.251,1.5-.843.837-2.7-.368-3.694a16.225,16.225,0,0,1-2.928-3.076l-6.722,2.969c-.368,2.708-1.639,7.269-5.689,7.554C309.805,404.145,310.821,406.954,312.953,406.954Z" transform="translate(-186.49 -212.541)" fill="#263238"/>
      <path id="Path_776" data-name="Path 776" d="M306.519,220.2s-13.065,33.256-14.8,49.748c-.048,13.659,18.879,54.332,18.879,54.332.594,1.016,6.022-1.906,6.723-2.969-6.972-17.02-3.308-38.316-9.6-50.811,13.481-19.17,23.938-54.635,23.938-54.635Z" transform="translate(-178.697 -140.439)" fill="#feba30"/>
      <path id="Path_777" data-name="Path 777" d="M312.756,235.043a.15.15,0,0,1-.036-.3,6.817,6.817,0,0,0,4.068-2.643.148.148,0,0,1,.2-.048.143.143,0,0,1,.048.2,6.96,6.96,0,0,1-4.252,2.779Z" transform="translate(-187.172 -147.008)" fill="#fff" opacity="0.2"/>
      <path id="Path_778" data-name="Path 778" d="M335.08,247.41c-2.91,5.891-3.367,14.68-3.136,21.415a231.563,231.563,0,0,0,9.721-22.6l-.03-.03a4.157,4.157,0,0,0-6.556,1.217Z" transform="translate(-195.012 -152.309)" opacity="0.2"/>
      <path id="Path_779" data-name="Path 779" d="M329.33,218.458s3.474,31.065,10.369,52.26c3.444,10.571,23.1,34.58,30.239,56.333,1.33.736,5.8.784,8.243,0,0,0-10.969-47.812-22.78-57.872-.036-25.839.891-38.31-4.751-54.439Z" transform="translate(-193.972 -139.984)" fill="#feba30"/>
      <path id="Path_780" data-name="Path 780" d="M384.392,330.366a.148.148,0,0,1-.148-.119c-4.882-28.867-22.365-54.041-22.567-54.273a.2.2,0,0,1,0-.1c0-.03.3-3.563.594-16.687.285-12.352-.855-25.756-1-27.371-.926.154-5.6.79-9.139-1.532a.148.148,0,0,1-.042-.208.154.154,0,0,1,.208-.042c3.819,2.506,9.027,1.473,9.08,1.461a.131.131,0,0,1,.113,0,.16.16,0,0,1,.065.107c0,.143,1.312,14.449,1.01,27.567-.291,12.257-.594,16.165-.594,16.658.831,1.188,17.756,25.987,22.567,54.344a.149.149,0,0,1-.125.172Z" transform="translate(-203.206 -146.186)" fill="#fff" opacity="0.2"/>
      <path id="Path_781" data-name="Path 781" d="M395.062,398.1a22.732,22.732,0,0,1,.594,3.047.9.9,0,0,0,.748.748,29.446,29.446,0,0,0,8.629-.469.433.433,0,0,0,.356-.523l-.368-2.851a.891.891,0,0,0-.849-.73l-8.664.166a.457.457,0,0,0-.445.612Z" transform="translate(-220.657 -214.137)" fill="#aee5d1"/>
      <path id="Path_782" data-name="Path 782" d="M395.062,398.1a22.732,22.732,0,0,1,.594,3.047.9.9,0,0,0,.748.748,29.446,29.446,0,0,0,8.629-.469.433.433,0,0,0,.356-.523l-.368-2.851a.891.891,0,0,0-.849-.73l-8.664.166a.457.457,0,0,0-.445.612Z" transform="translate(-220.657 -214.137)" fill="#feba30" opacity="0.2"/>
      <path id="Path_783" data-name="Path 783" d="M320.224,391.242c.267.748.736,2.09,1.051,3.094a.629.629,0,0,0,.784.416,43.949,43.949,0,0,0,7.382-3.373.63.63,0,0,0,.309-.671l-.534-2.88a.629.629,0,0,0-.855-.469l-7.774,3.082A.629.629,0,0,0,320.224,391.242Z" transform="translate(-190.258 -210.073)" fill="#aee5d1"/>
      <path id="Path_784" data-name="Path 784" d="M320.224,391.242c.267.748.736,2.09,1.051,3.094a.629.629,0,0,0,.784.416,43.949,43.949,0,0,0,7.382-3.373.63.63,0,0,0,.309-.671l-.534-2.88a.629.629,0,0,0-.855-.469l-7.774,3.082A.629.629,0,0,0,320.224,391.242Z" transform="translate(-190.258 -210.073)" fill="#feba30" opacity="0.2"/>
      <path id="Path_785" data-name="Path 785" d="M315.742,216.206a10.842,10.842,0,0,1-.932,3.51c1.069.725,4.751,1.526,9.4,1.728.439-.719.713-2.613,1.057-3.385a6.918,6.918,0,0,0,2.079,3.427,47.17,47.17,0,0,0,7.768-.766c9.056-1.7,11.194-4.513,11.194-4.513s-1.734-5.226-2.227-7.126C339.4,209.43,315.986,210.113,315.742,216.206Z" transform="translate(-188.074 -137.685)" fill="#fff"/>
      <path id="Path_786" data-name="Path 786" d="M301.809,162.868a132.474,132.474,0,0,0,4.6,12.6c3.533,9.086,2.7,11.087,3.617,14.817a22.614,22.614,0,0,0,7.94,1.526,12.252,12.252,0,0,1,1.615-2.649c.719.481,2.94,1.865,4.216,1.948,5.772-.891,13.219-3.13,15.832-5.9-1.989-8.029-2.708-16.782-3.872-36.041a6.835,6.835,0,0,0-8.445-6.449c-1.134.273-2.328.594-3.563.944a92.277,92.277,0,0,0-12.554,4.395c-1.318.594-2.672,1.265-3.961,1.924a11.028,11.028,0,0,0-5.428,12.881Z" transform="translate(-182.61 -110.655)" fill="#263238"/>
      <path id="Path_787" data-name="Path 787" d="M384.04,222.3l-.9-.986a3.563,3.563,0,0,1-.879-2.9l.849-5.85,2.53-1.716c2.233,2.126,3.183,6.562,3.183,6.562l.392,1.188a2.459,2.459,0,0,1-.974,2.839l-2.073,1.188a1.681,1.681,0,0,1-2.132-.327Z" transform="translate(-215.455 -138.404)" fill="#b55b52"/>
      <path id="Path_788" data-name="Path 788" d="M359.586,151.534c.766.713,1.407,1.342,2.078,2.031s1.295,1.372,1.93,2.067c1.253,1.4,2.465,2.839,3.623,4.335s2.269,3.017,3.32,4.6,2.037,3.225,2.969,4.905l.119.214a2.608,2.608,0,0,1,.208.5,31.28,31.28,0,0,1,.938,5.149c.19,1.639.273,3.26.339,4.864s.065,3.207.03,4.8-.107,3.177-.261,4.8a2.043,2.043,0,0,1-4.032.238V190c-.327-1.508-.594-3.046-.92-4.561s-.594-3.029-.909-4.525-.635-2.969-.98-4.412a30.921,30.921,0,0,0-1.188-3.973l.327.707c-.95-1.407-1.93-2.8-2.969-4.157s-2.126-2.7-3.248-4.02-2.263-2.619-3.438-3.89l-1.782-1.894c-.594-.594-1.188-1.271-1.752-1.811l-.065-.071a4.08,4.08,0,1,1,5.677-5.861Z" transform="translate(-203.455 -113.847)" fill="#b55b52"/>
      <path id="Path_789" data-name="Path 789" d="M344.21,142.615c10.494-3.943,21.973,13.956,23.065,18.22.3,3.973-6.627,5.446-6.627,5.446S343.634,157.069,344.21,142.615Z" transform="translate(-200.009 -110.462)" fill="#263238"/>
      <path id="Path_790" data-name="Path 790" d="M321.277,161.329a.374.374,0,0,1-.321-.184.368.368,0,0,1,.137-.5,24.18,24.18,0,0,0,5.939-7,.368.368,0,0,1,.5-.166.374.374,0,0,1,.166.5,25.6,25.6,0,0,1-6.259,7.31.362.362,0,0,1-.16.048Z" transform="translate(-190.55 -115.084)" fill="#feba30"/>
      <path id="Path_791" data-name="Path 791" d="M317.3,161.518a.428.428,0,0,1-.19-.048,7.75,7.75,0,0,1-2.833-6.734.374.374,0,1,1,.742.053,7.06,7.06,0,0,0,2.47,6.04.368.368,0,0,1-.19.689Z" transform="translate(-187.848 -115.457)" fill="#feba30"/>
      <path id="Path_792" data-name="Path 792" d="M323.08,121.55c.695,4.377,2.536,12.049,6.1,13.825,0,0-4.026.76-10.387,8.629-3.533-2.554-2.162-4.24-2.162-4.24,4.2-2.678,3.266-5.511,1.378-8.314Z" transform="translate(-188.708 -102.136)" fill="#b55b52"/>
      <path id="Path_793" data-name="Path 793" d="M322.73,151.061c2.809-.558,5.06,3.189,5.06,3.189s4.834-6.788,5.749-10.689a27.912,27.912,0,0,1-2.868-.671S323.751,148.971,322.73,151.061Z" transform="translate(-191.291 -110.803)" fill="#fff"/>
      <path id="Path_794" data-name="Path 794" d="M316.109,154.784s-2.09,1.431-1.782,4.977c-2.672-5.677-.267-7.643-.267-7.643a3.622,3.622,0,0,1,2.292-1.188A3.035,3.035,0,0,0,316.109,154.784Z" transform="translate(-187.366 -114.068)" fill="#fff"/>
      <path id="Path_795" data-name="Path 795" d="M322.135,128.35l-3,5.861a13.5,13.5,0,0,1,1.188,2.061c1.574-.992,3.177-3.9,2.708-5.784A6.533,6.533,0,0,0,322.135,128.35Z" transform="translate(-189.829 -104.898)" opacity="0.2"/>
      <path id="Path_796" data-name="Path 796" d="M300.275,129.608h-1.384a.158.158,0,0,1-.154-.2l.689-3.177a.154.154,0,0,1,.154-.125h0a.166.166,0,0,1,.16.125l.689,3.177a.166.166,0,0,1-.03.137.178.178,0,0,1-.125.059Zm-1.188-.327h.992l-.487-2.245Z" transform="translate(-181.545 -103.988)" fill="#fff"/>
      <path id="Path_797" data-name="Path 797" d="M314.744,100.929c1.639,6.835,2.47,9.686.232,14.318-3.379,6.972-11.877,7.9-15.476,1.782-3.237-5.5-5.345-15.755.2-20.744A8.975,8.975,0,0,1,314.744,100.929Z" transform="translate(-180.544 -90.844)" fill="#b55b52"/>
      <path id="Path_798" data-name="Path 798" d="M295.079,102.753c6.289-1.229,10.1-7.322,13.065-7.126-.451,4.62,3.171,9.84,6.74,9.965,4.828.166.356-11.7-2.886-13.576C308.577,90.015,293.968,89.872,295.079,102.753Z" transform="translate(-180.036 -89.735)" fill="#263238"/>
      <path id="Path_799" data-name="Path 799" d="M320.535,108.752a2.53,2.53,0,0,1-1.479-.517c-2.18-1.562-3.5-6.414-2.661-9.793a.327.327,0,1,1,.629.154c-.766,3.106.445,7.72,2.405,9.11a1.782,1.782,0,0,0,2.126.065.321.321,0,0,1,.445.1.327.327,0,0,1-.1.451,2.572,2.572,0,0,1-1.372.433Z" transform="translate(-188.615 -92.634)" fill="#263238"/>
      <path id="Path_800" data-name="Path 800" d="M310.434,114.579c.16.594,0,1.128-.344,1.259s-.772-.232-.932-.8,0-1.134.344-1.259S310.274,114.008,310.434,114.579Z" transform="translate(-185.753 -98.971)" fill="#263238"/>
      <ellipse id="Ellipse_72" data-name="Ellipse 72" cx="0.677" cy="1.069" rx="0.677" ry="1.069" transform="matrix(0.973, -0.23, 0.23, 0.973, 116.531, 17.454)" fill="#263238"/>
      <path id="Path_801" data-name="Path 801" d="M297.967,118l-1.407.077S297.528,118.885,297.967,118Z" transform="translate(-180.662 -100.694)" fill="#263238"/>
      <path id="Path_802" data-name="Path 802" d="M303.181,119.79a17.394,17.394,0,0,1-.891,4.323,2.346,2.346,0,0,0,2.031-.321Z" transform="translate(-182.99 -101.421)" fill="#a02724"/>
      <path id="Path_803" data-name="Path 803" d="M310.822,126.173a5.273,5.273,0,0,1-.938.255.16.16,0,0,1-.184-.143.184.184,0,0,1,.148-.2,4.887,4.887,0,0,0,3.444-2.476.178.178,0,0,1,.226-.1.172.172,0,0,1,.077.232,5.178,5.178,0,0,1-2.773,2.429Z" transform="translate(-185.998 -102.928)" fill="#263238"/>
      <path id="Path_804" data-name="Path 804" d="M329.841,114.214a4.846,4.846,0,0,1-2.215,3.225c-1.449.808-2.583-.808-2.518-2.72.059-1.728.885-4.228,2.506-4.228S330.221,112.45,329.841,114.214Z" transform="translate(-192.256 -97.644)" fill="#b55b52"/>
      <path id="Path_805" data-name="Path 805" d="M305.357,109.78a.327.327,0,0,1,.214-.148,2.518,2.518,0,0,0,1.924-1.431.309.309,0,0,1,.428-.172.374.374,0,0,1,.19.463,3.159,3.159,0,0,1-2.411,1.835.344.344,0,0,1-.386-.291A.368.368,0,0,1,305.357,109.78Z" transform="translate(-184.215 -96.631)" fill="#263238"/>
      <path id="Path_806" data-name="Path 806" d="M295.024,113.673a.3.3,0,0,1-.249,0,.339.339,0,0,1-.166-.451,3.617,3.617,0,0,1,2.34-2.185.321.321,0,0,1,.38.273.374.374,0,0,1-.279.416,2.874,2.874,0,0,0-1.835,1.746A.344.344,0,0,1,295.024,113.673Z" transform="translate(-179.857 -97.863)" fill="#263238"/>
      <path id="Path_807" data-name="Path 807" d="M309.1,113.75l-1.407.077S308.658,114.653,309.1,113.75Z" transform="translate(-185.183 -98.968)" fill="#263238"/>
      <path id="Path_808" data-name="Path 808" d="M318.868,162.114a8.539,8.539,0,0,1,1.621-.154.635.635,0,0,1,.594.463c.172.594.493,1.675.683,2.191.267.742-1.835,2.269-1.835,2.269s-1.734-.825-1.782-1.918a14.312,14.312,0,0,1,.172-2.31A.635.635,0,0,1,318.868,162.114Z" transform="translate(-189.431 -118.548)" fill="#feba30"/>
      <path id="Path_809" data-name="Path 809" d="M323.021,185.785c-.143-3.427-2.375-19.075-2.375-19.075l-1.669.208c-.125,2.227-1.307,15.607-1.307,19.152s3.029,7.506,3.029,7.506S323.163,189.205,323.021,185.785Z" transform="translate(-189.236 -120.477)" fill="#feba30"/>
      <path id="Path_810" data-name="Path 810" d="M369.637,178.4a7.126,7.126,0,0,0,1.675,1.051.338.338,0,0,0,.154,0c.653-.053,5.19-.594,7.239-4.389a.392.392,0,0,0,.048-.214,7.447,7.447,0,0,0-.932-2.756.35.35,0,0,0-.558-.071,26.049,26.049,0,0,1-7.542,5.76.35.35,0,0,0-.083.618Z" transform="translate(-210.281 -122.593)" fill="#fff"/>
      <path id="Path_811" data-name="Path 811" d="M262.12,233.975l-2.916,5.939a2.3,2.3,0,0,1-3.189.986L218.43,219.717,221.738,213l39.272,17.9a2.3,2.3,0,0,1,1.111,3.076Z" transform="translate(-148.931 -139.277)" fill="#aee5d1"/>
      <path id="Path_812" data-name="Path 812" d="M262.12,233.975l-2.916,5.939a2.3,2.3,0,0,1-3.189.986L218.43,219.717,221.738,213l39.272,17.9a2.3,2.3,0,0,1,1.111,3.076Z" transform="translate(-148.931 -139.277)" fill="#1e1401" opacity="0.4"/>
      <path id="Path_813" data-name="Path 813" d="M182.486,157.651c-.048-.119-.089-.232-.131-.344-.16-.416-.333-.825-.511-1.235l-.077-.16c-.154-.356-.321-.707-.493-1.057-.059-.125-.125-.243-.19-.368-.148-.3-.3-.594-.463-.885-.065-.107-.125-.22-.184-.333-.22-.392-.451-.778-.689-1.188l-.083-.131c-.214-.339-.434-.677-.659-1.01l-.243-.344c-.19-.273-.392-.546-.594-.82l-.232-.315c-.279-.362-.564-.725-.855-1.075l-.089-.1c-.267-.321-.546-.635-.825-.944l-.285-.309c-.238-.249-.475-.5-.719-.742l-.285-.291q-.5-.493-1.016-.962l-.071-.065c-.327-.3-.659-.594-1-.867l-.327-.267-.831-.653-.333-.255q-.594-.428-1.188-.837h-.042c-.386-.255-.778-.511-1.188-.754l-.38-.232c-.3-.184-.594-.362-.932-.54l-.386-.214c-.434-.238-.867-.469-1.318-.689-15.874-7.791-34.586-2.215-41.778,12.471l-2.375,4.751c7.192-14.656,25.9-20.233,41.784-12.441.445.22.885.451,1.312.683.131.071.261.143.386.22.315.172.629.356.938.54l.374.226c.4.249.79.5,1.188.76l.042.03c.4.273.79.552,1.188.837l.333.255c.279.214.558.428.825.647l.339.273c.339.285.671.594,1,.861l.071.065c.35.315.683.641,1.016.968.1.1.19.19.285.285.243.243.481.493.719.742l.285.315c.285.309.558.594.825.944l.089.1q.439.529.855,1.069l.238.321c.2.267.4.54.594.82.077.113.16.226.238.344.226.333.445.665.659,1,.03.048.059.089.083.137.238.38.469.772.689,1.188l.184.339c.16.291.315.594.469.885l.184.368c.172.35.339.7.493,1.051.03.053.053.113.077.166.178.4.35.82.511,1.229l.131.344c.119.315.226.594.333.932.048.131.089.261.131.392.119.356.226.713.333,1.075a.959.959,0,0,0,.059.2c.119.422.226.849.321,1.271a1.913,1.913,0,0,0,.077.356q.107.481.2.962a3.288,3.288,0,0,0,.071.41c.065.356.119.719.166,1.081a.592.592,0,0,0,.03.226c.059.434.1.867.137,1.3v.356q.036.493.053.98v2.138c0,.4-.036.8-.071,1.188,0,.19-.042.38-.059.594q-.053.5-.125,1.016a3.021,3.021,0,0,1-.1.594c-.053.327-.113.653-.178.974-.042.208-.089.416-.131.594-.077.333-.16.665-.249.992-.059.208-.113.416-.172.629l-.143.457c-.089.291-.184.594-.285.867-.053.16-.113.315-.172.475-.107.3-.226.594-.35.891-.053.137-.107.273-.166.41-.184.428-.374.855-.594,1.277l2.346-4.781c.208-.422.4-.849.594-1.277.059-.137.113-.273.166-.41.125-.3.238-.594.35-.891.059-.154.113-.315.172-.469.1-.291.2-.594.285-.867l.143-.463.071-.226c.036-.131.065-.267.1-.4.083-.327.172-.653.243-.986.048-.208.1-.41.137-.594.065-.327.125-.653.178-.974.036-.208.071-.416.1-.594.048-.339.089-.677.125-1.021,0-.19.042-.38.059-.594.036-.4.053-.8.071-1.188v-2.138a6.1,6.1,0,0,0-.053-.986v-.35a10.7,10.7,0,0,0-.131-1.306.607.607,0,0,0-.03-.226c-.048-.356-.1-.719-.166-1.081l-.071-.4q-.089-.481-.2-.962a1.532,1.532,0,0,0-.077-.356c-.1-.428-.208-.855-.321-1.277a2.007,2.007,0,0,1-.059-.2c-.107-.356-.214-.713-.333-1.069-.042-.131-.083-.261-.131-.392A8.69,8.69,0,0,0,182.486,157.651Z" transform="translate(-109.649 -108.063)" fill="#aee5d1"/>
      <path id="Path_814" data-name="Path 814" d="M182.486,157.651c-.048-.119-.089-.232-.131-.344-.16-.416-.333-.825-.511-1.235l-.077-.16c-.154-.356-.321-.707-.493-1.057-.059-.125-.125-.243-.19-.368-.148-.3-.3-.594-.463-.885-.065-.107-.125-.22-.184-.333-.22-.392-.451-.778-.689-1.188l-.083-.131c-.214-.339-.434-.677-.659-1.01l-.243-.344c-.19-.273-.392-.546-.594-.82l-.232-.315c-.279-.362-.564-.725-.855-1.075l-.089-.1c-.267-.321-.546-.635-.825-.944l-.285-.309c-.238-.249-.475-.5-.719-.742l-.285-.291q-.5-.493-1.016-.962l-.071-.065c-.327-.3-.659-.594-1-.867l-.327-.267-.831-.653-.333-.255q-.594-.428-1.188-.837h-.042c-.386-.255-.778-.511-1.188-.754l-.38-.232c-.3-.184-.594-.362-.932-.54l-.386-.214c-.434-.238-.867-.469-1.318-.689-15.874-7.791-34.586-2.215-41.778,12.471l-2.375,4.751c7.192-14.656,25.9-20.233,41.784-12.441.445.22.885.451,1.312.683.131.071.261.143.386.22.315.172.629.356.938.54l.374.226c.4.249.79.5,1.188.76l.042.03c.4.273.79.552,1.188.837l.333.255c.279.214.558.428.825.647l.339.273c.339.285.671.594,1,.861l.071.065c.35.315.683.641,1.016.968.1.1.19.19.285.285.243.243.481.493.719.742l.285.315c.285.309.558.594.825.944l.089.1q.439.529.855,1.069l.238.321c.2.267.4.54.594.82.077.113.16.226.238.344.226.333.445.665.659,1,.03.048.059.089.083.137.238.38.469.772.689,1.188l.184.339c.16.291.315.594.469.885l.184.368c.172.35.339.7.493,1.051.03.053.053.113.077.166.178.4.35.82.511,1.229l.131.344c.119.315.226.594.333.932.048.131.089.261.131.392.119.356.226.713.333,1.075a.959.959,0,0,0,.059.2c.119.422.226.849.321,1.271a1.913,1.913,0,0,0,.077.356q.107.481.2.962a3.288,3.288,0,0,0,.071.41c.065.356.119.719.166,1.081a.592.592,0,0,0,.03.226c.059.434.1.867.137,1.3v.356q.036.493.053.98v2.138c0,.4-.036.8-.071,1.188,0,.19-.042.38-.059.594q-.053.5-.125,1.016a3.021,3.021,0,0,1-.1.594c-.053.327-.113.653-.178.974-.042.208-.089.416-.131.594-.077.333-.16.665-.249.992-.059.208-.113.416-.172.629l-.143.457c-.089.291-.184.594-.285.867-.053.16-.113.315-.172.475-.107.3-.226.594-.35.891-.053.137-.107.273-.166.41-.184.428-.374.855-.594,1.277l2.346-4.781c.208-.422.4-.849.594-1.277.059-.137.113-.273.166-.41.125-.3.238-.594.35-.891.059-.154.113-.315.172-.469.1-.291.2-.594.285-.867l.143-.463.071-.226c.036-.131.065-.267.1-.4.083-.327.172-.653.243-.986.048-.208.1-.41.137-.594.065-.327.125-.653.178-.974.036-.208.071-.416.1-.594.048-.339.089-.677.125-1.021,0-.19.042-.38.059-.594.036-.4.053-.8.071-1.188v-2.138a6.1,6.1,0,0,0-.053-.986v-.35a10.7,10.7,0,0,0-.131-1.306.607.607,0,0,0-.03-.226c-.048-.356-.1-.719-.166-1.081l-.071-.4q-.089-.481-.2-.962a1.532,1.532,0,0,0-.077-.356c-.1-.428-.208-.855-.321-1.277a2.007,2.007,0,0,1-.059-.2c-.107-.356-.214-.713-.333-1.069-.042-.131-.083-.261-.131-.392A8.69,8.69,0,0,0,182.486,157.651Z" transform="translate(-109.649 -108.063)" opacity="0.4"/>
      <path id="Path_815" data-name="Path 815" d="M127.714,208.7c-.594-.285-1.146-.594-1.7-.885l-.5-.279c-.41-.232-.814-.463-1.188-.707l-.487-.291c-.517-.321-1.027-.647-1.526-.986l-.059-.036q-.778-.534-1.514-1.087l-.439-.333c-.362-.273-.719-.558-1.075-.843l-.428-.35c-.439-.368-.873-.736-1.295-1.116l-.1-.083c-.451-.41-.891-.825-1.318-1.253l-.374-.374c-.315-.315-.594-.635-.92-.962l-.374-.4c-.368-.4-.725-.814-1.075-1.223l-.107-.131c-.386-.457-.754-.92-1.111-1.39l-.309-.41c-.261-.35-.517-.707-.766-1.063l-.309-.445c-.3-.434-.594-.867-.855-1.306l-.113-.178c-.309-.493-.594-1-.891-1.5-.083-.143-.16-.291-.238-.439q-.315-.564-.594-1.14c-.083-.16-.166-.321-.243-.481-.22-.451-.434-.9-.641-1.36,0-.071-.065-.143-.1-.22-.232-.523-.451-1.057-.659-1.592-.059-.148-.113-.3-.166-.451-.154-.4-.3-.8-.434-1.188-.059-.172-.119-.339-.172-.511q-.22-.689-.428-1.39a1.176,1.176,0,0,0-.077-.261c-.154-.546-.291-1.1-.416-1.651-.036-.154-.071-.309-.1-.457-.1-.416-.178-.837-.255-1.253a3.224,3.224,0,0,0-.1-.523q-.113-.707-.214-1.407a.707.707,0,0,0-.042-.291c-.071-.558-.125-1.122-.166-1.687V174.3c-.03-.428-.053-.849-.065-1.277v-2.767c0-.517.048-1.039.1-1.556,0-.243.053-.493.077-.742q.071-.659.16-1.318c.042-.261.083-.529.131-.8q.107-.629.232-1.265c.053-.267.113-.534.172-.8q.148-.641.321-1.283c.077-.273.143-.546.226-.814s.119-.4.184-.594c.119-.374.238-.748.368-1.122.077-.208.148-.41.22-.594.148-.392.3-.772.457-1.188l.214-.529c.243-.558.493-1.111.76-1.657l-2.375,4.751c-.267.552-.517,1.1-.754,1.657-.077.178-.148.356-.22.529-.16.386-.309.772-.451,1.188-.077.2-.148.41-.22.594-.131.374-.255.748-.374,1.128-.065.2-.125.4-.184.594a1.412,1.412,0,0,1-.089.3c-.024.1-.089.344-.131.523-.119.428-.226.849-.327,1.277-.059.267-.113.534-.172.8q-.125.629-.232,1.265c-.048.267-.089.534-.131.8q-.089.659-.16,1.318c0,.243-.053.493-.077.742-.042.517-.071,1.033-.1,1.55v2.773c0,.422.036.849.065,1.271v.457c.042.594.1,1.128.166,1.693a.721.721,0,0,0,.042.291c.065.469.137.938.214,1.4.03.178.065.35.1.529.077.416.16.831.255,1.247a2.158,2.158,0,0,0,.1.463c.125.552.267,1.1.416,1.651l.077.255c.137.469.279.932.428,1.4.053.172.113.339.172.5.137.4.279.808.434,1.188.053.154.113.3.166.457.214.534.428,1.063.659,1.592.036.071.071.143.1.214.208.457.422.915.641,1.366l.243.481q.3.594.594,1.14l.238.439c.285.5.594,1,.891,1.5l.113.178q.41.659.855,1.3l.309.445c.249.356.5.713.766,1.063l.309.41c.362.469.73.938,1.111,1.4l.107.125c.35.416.707.825,1.075,1.229l.374.4c.3.327.594.647.926.968l.368.374c.434.422.867.843,1.318,1.247l.089.083q.641.594,1.3,1.122l.434.35c.35.285.707.564,1.069.843l.439.333c.493.368,1,.73,1.514,1.081l.059.036c.5.339,1.01.665,1.526.986l.487.3c.4.238.8.475,1.188.7l.5.279q.837.463,1.71.891c20.577,10.1,44.825,2.874,54.16-16.135l2.34-4.781C172.544,211.579,148.3,218.8,127.714,208.7Z" transform="translate(-101.4 -116.127)" fill="#aee5d1"/>
      <path id="Path_816" data-name="Path 816" d="M127.714,208.7c-.594-.285-1.146-.594-1.7-.885l-.5-.279c-.41-.232-.814-.463-1.188-.707l-.487-.291c-.517-.321-1.027-.647-1.526-.986l-.059-.036q-.778-.534-1.514-1.087l-.439-.333c-.362-.273-.719-.558-1.075-.843l-.428-.35c-.439-.368-.873-.736-1.295-1.116l-.1-.083c-.451-.41-.891-.825-1.318-1.253l-.374-.374c-.315-.315-.594-.635-.92-.962l-.374-.4c-.368-.4-.725-.814-1.075-1.223l-.107-.131c-.386-.457-.754-.92-1.111-1.39l-.309-.41c-.261-.35-.517-.707-.766-1.063l-.309-.445c-.3-.434-.594-.867-.855-1.306l-.113-.178c-.309-.493-.594-1-.891-1.5-.083-.143-.16-.291-.238-.439q-.315-.564-.594-1.14c-.083-.16-.166-.321-.243-.481-.22-.451-.434-.9-.641-1.36,0-.071-.065-.143-.1-.22-.232-.523-.451-1.057-.659-1.592-.059-.148-.113-.3-.166-.451-.154-.4-.3-.8-.434-1.188-.059-.172-.119-.339-.172-.511q-.22-.689-.428-1.39a1.176,1.176,0,0,0-.077-.261c-.154-.546-.291-1.1-.416-1.651-.036-.154-.071-.309-.1-.457-.1-.416-.178-.837-.255-1.253a3.224,3.224,0,0,0-.1-.523q-.113-.707-.214-1.407a.707.707,0,0,0-.042-.291c-.071-.558-.125-1.122-.166-1.687V174.3c-.03-.428-.053-.849-.065-1.277v-2.767c0-.517.048-1.039.1-1.556,0-.243.053-.493.077-.742q.071-.659.16-1.318c.042-.261.083-.529.131-.8q.107-.629.232-1.265c.053-.267.113-.534.172-.8q.148-.641.321-1.283c.077-.273.143-.546.226-.814s.119-.4.184-.594c.119-.374.238-.748.368-1.122.077-.208.148-.41.22-.594.148-.392.3-.772.457-1.188l.214-.529c.243-.558.493-1.111.76-1.657l-2.375,4.751c-.267.552-.517,1.1-.754,1.657-.077.178-.148.356-.22.529-.16.386-.309.772-.451,1.188-.077.2-.148.41-.22.594-.131.374-.255.748-.374,1.128-.065.2-.125.4-.184.594a1.412,1.412,0,0,1-.089.3c-.024.1-.089.344-.131.523-.119.428-.226.849-.327,1.277-.059.267-.113.534-.172.8q-.125.629-.232,1.265c-.048.267-.089.534-.131.8q-.089.659-.16,1.318c0,.243-.053.493-.077.742-.042.517-.071,1.033-.1,1.55v2.773c0,.422.036.849.065,1.271v.457c.042.594.1,1.128.166,1.693a.721.721,0,0,0,.042.291c.065.469.137.938.214,1.4.03.178.065.35.1.529.077.416.16.831.255,1.247a2.158,2.158,0,0,0,.1.463c.125.552.267,1.1.416,1.651l.077.255c.137.469.279.932.428,1.4.053.172.113.339.172.5.137.4.279.808.434,1.188.053.154.113.3.166.457.214.534.428,1.063.659,1.592.036.071.071.143.1.214.208.457.422.915.641,1.366l.243.481q.3.594.594,1.14l.238.439c.285.5.594,1,.891,1.5l.113.178q.41.659.855,1.3l.309.445c.249.356.5.713.766,1.063l.309.41c.362.469.73.938,1.111,1.4l.107.125c.35.416.707.825,1.075,1.229l.374.4c.3.327.594.647.926.968l.368.374c.434.422.867.843,1.318,1.247l.089.083q.641.594,1.3,1.122l.434.35c.35.285.707.564,1.069.843l.439.333c.493.368,1,.73,1.514,1.081l.059.036c.5.339,1.01.665,1.526.986l.487.3c.4.238.8.475,1.188.7l.5.279q.837.463,1.71.891c20.577,10.1,44.825,2.874,54.16-16.135l2.34-4.781C172.544,211.579,148.3,218.8,127.714,208.7Z" transform="translate(-101.4 -116.127)" fill="#1e1401" opacity="0.4"/>
      <path id="Path_817" data-name="Path 817" d="M131.027,124.947l-.327-.5a40.912,40.912,0,0,1,4.591-2.6l.261.534a39.261,39.261,0,0,0-4.525,2.56ZM140,120.553l-.2-.558a44.213,44.213,0,0,1,21.973-1.639l-.1.594a43.726,43.726,0,0,0-21.676,1.6Z" transform="translate(-113.3 -100.557)" fill="#aee5d1"/>
      <path id="Path_818" data-name="Path 818" d="M108.906,141.851c9.33-19,33.571-26.225,54.154-16.123s29.693,33.7,20.375,52.7-33.577,26.237-54.16,16.135S99.577,160.854,108.906,141.851Zm66.013,32.4c7.192-14.656.16-32.87-15.719-40.662s-34.586-2.215-41.778,12.471-.154,32.87,15.719,40.662,34.574,2.221,41.778-12.471" transform="translate(-102.962 -101.978)" fill="#feba30"/>
      <path id="Path_819" data-name="Path 819" d="M265.714,225.913l-2.969,6.01a2.292,2.292,0,0,1-3.13,1.016L221.43,212.83l3.9-7.91,39.266,17.9a2.292,2.292,0,0,1,1.116,3.094Z" transform="translate(-150.149 -135.996)" fill="#feba30"/>
      <path id="Path_820" data-name="Path 820" d="M181.437,180.21c7.334-14.936.166-33.494-16.034-41.434s-35.246-2.257-42.58,12.679-.154,33.5,16.034,41.439,35.24,2.269,42.574-12.685" transform="translate(-108.933 -107.675)" fill="#fff" opacity="0.1"/>
      <path id="Path_821" data-name="Path 821" d="M165.437,138.826a34.854,34.854,0,0,0-12.75-3.486l-32.359,24.212a29.319,29.319,0,0,0,.778,12.471Z" transform="translate(-108.949 -107.737)" fill="#fff" opacity="0.1"/>
      <path id="Path_822" data-name="Path 822" d="M273.118,221.4c-2.411-.867-4.068.736-5.737,1.568-.285.143-.2.986.368,1.069a2.619,2.619,0,0,0,2.025-.35,3.173,3.173,0,0,0,4.276-.184A3.249,3.249,0,0,0,273.118,221.4Z" transform="translate(-168.747 -142.587)" fill="#b55b52"/>
      <path id="Path_823" data-name="Path 823" d="M329.745,124.388h-1.378a.16.16,0,0,1-.16-.2l.689-3.171a.166.166,0,0,1,.16-.131h0a.154.154,0,0,1,.154.131l.689,3.171a.16.16,0,0,1-.03.137A.148.148,0,0,1,329.745,124.388Zm-1.188-.321h.974l-.487-2.245Z" transform="translate(-193.514 -101.868)" fill="#fff"/>
    </g>
    <g id="freepik--question-marks--inject-48" transform="translate(138.887 49.57)">
      <path id="Path_824" data-name="Path 824" d="M251.61,88.921l-3.367,5.345-.534-.339a7.839,7.839,0,0,1-2.025-1.7,5.939,5.939,0,0,1-.974-1.906,34.446,34.446,0,0,1-.742-4.311,2.893,2.893,0,0,0-.986-2.209,1.841,1.841,0,0,0-1.491-.279,2.34,2.34,0,0,0-1.3,1.116,2.619,2.619,0,0,0-.38,2.067,4.566,4.566,0,0,0,1.782,2.292l-4.121,5.036A8.819,8.819,0,0,1,234,88.785q-.635-3.064,1.853-7a10.271,10.271,0,0,1,4.4-4.157,6.3,6.3,0,0,1,6.23.344,5.345,5.345,0,0,1,1.888,2.114,13.5,13.5,0,0,1,1.016,4.412,8.67,8.67,0,0,0,.677,2.934A4.335,4.335,0,0,0,251.61,88.921Zm-2.061,6.426,3.6-5.725,5.054,3.183L254.6,98.536Z" transform="translate(-233.872 -60.695)" fill="#feba30"/>
      <path id="Path_825" data-name="Path 825" d="M338.846,63.835l-4.454-2.423.243-.445a6.3,6.3,0,0,1,1.259-1.7,4.751,4.751,0,0,1,1.473-.879,27.877,27.877,0,0,1,3.427-.837,2.325,2.325,0,0,0,1.716-.9,1.467,1.467,0,0,0,.166-1.188,1.847,1.847,0,0,0-.962-.986,2.114,2.114,0,0,0-1.675-.2,3.712,3.712,0,0,0-1.74,1.544l-4.24-3.017a7.061,7.061,0,0,1,4.014-3.047q2.423-.659,5.7,1.122a8.249,8.249,0,0,1,3.563,3.308,5.06,5.06,0,0,1,.042,5,4.228,4.228,0,0,1-1.6,1.621,10.642,10.642,0,0,1-3.48,1.039,6.8,6.8,0,0,0-2.31.695,3.426,3.426,0,0,0-1.146,1.3ZM333.6,62.51l4.751,2.6-2.286,4.2-4.751-2.6Z" transform="translate(-273.446 -49.57)" fill="#feba30"/>
      <path id="Path_826" data-name="Path 826" d="M352.19,88.5,351,84.711l.38-.119a4.923,4.923,0,0,1,1.639-.267,3.563,3.563,0,0,1,1.3.309,20.954,20.954,0,0,1,2.375,1.4,1.817,1.817,0,0,0,1.455.428,1.188,1.188,0,0,0,.754-.594,1.479,1.479,0,0,0,0-1.075,1.651,1.651,0,0,0-.831-1.027,2.91,2.91,0,0,0-1.817-.083l-.73-4.014a5.535,5.535,0,0,1,3.919.481,6.065,6.065,0,0,1,2.589,3.735,6.42,6.42,0,0,1,.184,3.789,3.949,3.949,0,0,1-2.714,2.815,3.266,3.266,0,0,1-1.782.042,8.48,8.48,0,0,1-2.524-1.312,5.344,5.344,0,0,0-1.675-.873,2.744,2.744,0,0,0-1.336.154Zm-2.227-3.6,1.265,4.056-3.563,1.116L346.4,86.012Z" transform="translate(-279.574 -61.729)" fill="#feba30"/>
    </g>
  </g>
</svg>
