<svg xmlns="http://www.w3.org/2000/svg" width="321.077" height="188.131" viewBox="0 0 321.077 188.131">
  <g id="Discount-pana" transform="translate(-27.83 -50)">
    <g id="freepik--background-complete--inject-34" transform="translate(28.223 50)">
      <path id="Path_556" data-name="Path 556" d="M568.445,118.66l.464,1.638-1.475,10.43-2.751.766,1.457-9.966-3.638,1,.5,1.782-2.236.631L559.69,121.1Z" transform="translate(-313.315 -86.804)" fill="#e0e0e0"/>
      <path id="Path_557" data-name="Path 557" d="M591.844,120.913c.538,1.939-.413,4.023-3.536,4.89a7.845,7.845,0,0,1-4.5,0l.464-2.218a5.489,5.489,0,0,0,3.387.121c1.262-.353,1.9-1.1,1.652-1.99s-.96-1.267-2.946-.715l-2.784.779-1.151-6.315,6.672-1.856.552,2.037-4.566,1.267.408,2.13.891-.251C589.622,117.879,591.306,118.978,591.844,120.913Z" transform="translate(-325.504 -84.097)" fill="#e0e0e0"/>
      <path id="Path_558" data-name="Path 558" d="M602.1,112.214c-.492-1.782.176-3.248,1.647-3.656s2.784.464,3.294,2.283-.19,3.248-1.647,3.656S602.592,114,602.1,112.214Zm4.176-1.155c-.394-1.42-1.3-2.079-2.32-1.8S602.5,110.59,602.893,112s1.285,2.083,2.32,1.8,1.434-1.313,1.039-2.737ZM610.4,106.8l.928-.255-4.426,13.014-.928.255Zm-.153,8.713c-.492-1.782.19-3.248,1.642-3.656s2.784.5,3.3,2.283-.176,3.248-1.647,3.656-2.816-.5-3.313-2.283Zm4.176-1.155c-.39-1.392-1.285-2.083-2.32-1.8s-1.457,1.313-1.058,2.733,1.3,2.079,2.32,1.8,1.41-1.327,1.021-2.733Z" transform="translate(-335.959 -80.307)" fill="#e0e0e0"/>
      <rect id="Rectangle_1567" data-name="Rectangle 1567" width="32.668" height="41.238" transform="translate(311.629 184.416) rotate(-179.55)" fill="#ebebeb"/>
      <path id="Path_559" data-name="Path 559" d="M666.849,361.187l-.58,39.925-5.159-.037,1.1-39.925Z" transform="translate(-367.679 -216.785)" fill="#fafafa"/>
      <path id="Path_560" data-name="Path 560" d="M589.836,360.58l18.74.148,32.668.255-32.7,4.3-.278,35.369-18.735-.144Z" transform="translate(-329.31 -216.48)" fill="#e0e0e0"/>
      <path id="Path_561" data-name="Path 561" d="M604.9,360.7l-.747,39.925-5.558-.042.909-39.925Z" transform="translate(-334.166 -216.523)" fill="#fafafa"/>
      <path id="Path_562" data-name="Path 562" d="M627.56,320.983c0,.084-.552.186-1.559.283a40.719,40.719,0,0,1-4.283.19,23.983,23.983,0,0,1-6.393-.84,4.586,4.586,0,0,1-.928-.418,2.509,2.509,0,0,1-.854-.807,2.255,2.255,0,0,1-.343-1.192,4.471,4.471,0,0,1,.139-1.1,24.283,24.283,0,0,1,1.211-3.925,10,10,0,0,1,1.058-1.884,5.9,5.9,0,0,1,1.554-1.536,3.162,3.162,0,0,1,1.076-.464,2.783,2.783,0,0,1,1.188,0,4.7,4.7,0,0,1,1.8.984,18.743,18.743,0,0,1,4.25,4.876,15.624,15.624,0,0,1,1.721,3.976,3.476,3.476,0,0,1,.214,1.578c-.2.06-.664-2.171-2.654-5.1a19.7,19.7,0,0,0-4.227-4.44,3.782,3.782,0,0,0-1.392-.738,1.763,1.763,0,0,0-1.369.3,4.858,4.858,0,0,0-1.216,1.243,9.282,9.282,0,0,0-.928,1.661,25.516,25.516,0,0,0-1.165,3.712,1.856,1.856,0,0,0,.032,1.392,2.223,2.223,0,0,0,1.174.789,15.187,15.187,0,0,0,1.61.427c.534.121,1.063.213,1.578.292,1.025.162,1.99.255,2.881.316,1.777.121,3.248.144,4.236.195A3.922,3.922,0,0,1,627.56,320.983Z" transform="translate(-341.998 -188.956)" fill="#e0e0e0"/>
      <path id="Path_563" data-name="Path 563" d="M642.69,319.406a5.23,5.23,0,0,1,1.694-.51c1.1-.251,2.7-.58,4.64-1.049a44.258,44.258,0,0,0,6.672-2.106,7.465,7.465,0,0,0,1.675-.891,1.856,1.856,0,0,0,.538-.594,1.035,1.035,0,0,0,.093-.677,3.75,3.75,0,0,0-.32-.882c-.153-.329-.311-.663-.464-1a16.1,16.1,0,0,0-1.067-1.921,8.312,8.312,0,0,0-1.392-1.619,5.313,5.313,0,0,0-1.661-1.072,2.654,2.654,0,0,0-1.721-.074,4.494,4.494,0,0,0-1.545.928,23.424,23.424,0,0,0-4.468,5.266,20.315,20.315,0,0,0-1.986,4.241,7,7,0,0,1-.58,1.656c-.093-.014-.088-.645.125-1.772a16.268,16.268,0,0,1,1.7-4.556,22.33,22.33,0,0,1,4.477-5.67,5.423,5.423,0,0,1,1.925-1.2,3.8,3.8,0,0,1,2.473.06,5.229,5.229,0,0,1,1.1.552,8.66,8.66,0,0,1,.96.738,9.207,9.207,0,0,1,1.573,1.856,17.549,17.549,0,0,1,1.146,2.065l.464,1.025a4.574,4.574,0,0,1,.4,1.188,2.176,2.176,0,0,1-.227,1.42,2.98,2.98,0,0,1-.872.96,8.352,8.352,0,0,1-1.949,1,38.3,38.3,0,0,1-6.918,1.912c-2,.371-3.628.561-4.751.677A4.722,4.722,0,0,1,642.69,319.406Z" transform="translate(-357.805 -187.076)" fill="#fafafa"/>
      <rect id="Rectangle_1568" data-name="Rectangle 1568" width="48.021" height="13.65" transform="translate(302.599 144.419) rotate(-179.55)" fill="#e0e0e0"/>
      <rect id="Rectangle_1569" data-name="Rectangle 1569" width="43.405" height="13.65" transform="translate(315.647 144.517) rotate(-179.55)" fill="#ebebeb"/>
      <path id="Path_564" data-name="Path 564" d="M674.3,331.822l-.3,13.71-5.062-.107.353-13.645Z" transform="translate(-371.876 -201.042)" fill="#fafafa"/>
      <path id="Path_565" data-name="Path 565" d="M595.995,331.281l-.492,13.59-5.563-.046.3-13.655Z" transform="translate(-329.53 -200.715)" fill="#fafafa"/>
      <rect id="Rectangle_1570" data-name="Rectangle 1570" width="14.921" height="18.837" transform="translate(318.801 184.76) rotate(-179.55)" fill="#ebebeb"/>
      <path id="Path_566" data-name="Path 566" d="M700.486,408.819l-.264,18.234-2.362-.014.506-18.239Z" transform="translate(-387.378 -242.327)" fill="#fafafa"/>
      <path id="Path_567" data-name="Path 567" d="M665.309,408.54l8.56.065,14.921.121-14.935,1.963-.13,16.155-8.556-.065Z" transform="translate(-369.855 -242.188)" fill="#e0e0e0"/>
      <path id="Path_568" data-name="Path 568" d="M672.181,408.6l-.339,18.239-2.543-.023.418-18.234Z" transform="translate(-372.069 -242.209)" fill="#fafafa"/>
      <path id="Path_569" data-name="Path 569" d="M682.171,390.1c0,.153-1,.385-2.677.464a10.412,10.412,0,0,1-3.011-.329,1.758,1.758,0,0,1-.984-.677,1.336,1.336,0,0,1-.209-.71,2.627,2.627,0,0,1,.065-.58,11.07,11.07,0,0,1,.566-1.856,4.865,4.865,0,0,1,.52-.928,2.941,2.941,0,0,1,.8-.793,1.642,1.642,0,0,1,1.276-.227,2.431,2.431,0,0,1,.928.52,8.384,8.384,0,0,1,1.953,2.32c.84,1.536.83,2.645.687,2.663s-.464-.928-1.392-2.2a9.244,9.244,0,0,0-1.921-1.912,1.364,1.364,0,0,0-.515-.274.492.492,0,0,0-.38.1,1.963,1.963,0,0,0-.464.487,3.9,3.9,0,0,0-.385.7,11.22,11.22,0,0,0-.52,1.638c-.07.26-.056.376-.032.4a.71.71,0,0,0,.367.237,9.691,9.691,0,0,0,1.392.348c.464.084.891.139,1.29.181C681.131,389.842,682.166,389.917,682.171,390.1Z" transform="translate(-375.28 -229.257)" fill="#e0e0e0"/>
      <path id="Path_570" data-name="Path 570" d="M689.392,389.431c-.028-.176,1.09-.464,2.849-.928a22.99,22.99,0,0,0,2.983-1.016,3.276,3.276,0,0,0,.691-.376.556.556,0,0,0,.153-.172v-.107a5.153,5.153,0,0,0-.334-.77,8.033,8.033,0,0,0-.464-.84,3.71,3.71,0,0,0-.571-.677,2.2,2.2,0,0,0-.65-.427.887.887,0,0,0-.585-.037,1.707,1.707,0,0,0-.6.353,11.166,11.166,0,0,0-2.042,2.3c-.979,1.475-1.183,2.608-1.392,2.58-.074,0-.125-.311-.065-.844a6.639,6.639,0,0,1,.7-2.162,9.873,9.873,0,0,1,2.046-2.7,2.709,2.709,0,0,1,.984-.617,2.013,2.013,0,0,1,1.332.023,2.46,2.46,0,0,1,.575.283,4.032,4.032,0,0,1,.464.362,4.633,4.633,0,0,1,.775.928,8.279,8.279,0,0,1,.543.979c.074.162.144.32.218.464a2.477,2.477,0,0,1,.2.626,1.345,1.345,0,0,1-.139.849,1.7,1.7,0,0,1-.492.538,3.847,3.847,0,0,1-.965.464,16.289,16.289,0,0,1-3.225.821A7.6,7.6,0,0,1,689.392,389.431Z" transform="translate(-382.812 -228.433)" fill="#fafafa"/>
      <rect id="Rectangle_1571" data-name="Rectangle 1571" width="21.932" height="6.236" transform="translate(314.678 166.488) rotate(-179.55)" fill="#e0e0e0"/>
      <rect id="Rectangle_1572" data-name="Rectangle 1572" width="19.825" height="6.236" transform="translate(320.636 166.537) rotate(-179.55)" fill="#ebebeb"/>
      <path id="Path_571" data-name="Path 571" d="M703.89,395.409l-.139,6.259-2.311-.046.162-6.231Z" transform="translate(-389.297 -235.139)" fill="#fafafa"/>
      <path id="Path_572" data-name="Path 572" d="M668.115,395.151l-.223,6.208-2.543-.019.139-6.24Z" transform="translate(-369.951 -234.983)" fill="#fafafa"/>
      <rect id="Rectangle_1573" data-name="Rectangle 1573" width="26.762" height="33.782" transform="translate(46.732 184.789) rotate(-179.55)" fill="#ebebeb"/>
      <path id="Path_573" data-name="Path 573" d="M101.955,377.568l-.473,32.71-4.231-.032.909-32.705Z" transform="translate(-65.434 -225.571)" fill="#fafafa"/>
      <path id="Path_574" data-name="Path 574" d="M38.871,377.07l15.353.121,26.762.209L54.2,380.926,53.968,409.9,38.62,409.78Z" transform="translate(-34.006 -225.319)" fill="#e0e0e0"/>
      <path id="Path_575" data-name="Path 575" d="M51.2,377.172,50.6,409.878l-4.556-.032.742-32.705Z" transform="translate(-37.984 -225.356)" fill="#fafafa"/>
      <path id="Path_576" data-name="Path 576" d="M68.978,343.854c0,.167-.464.339-1.267.506a22.86,22.86,0,0,1-6.032.325c-.464-.042-.928-.093-1.392-.176a11.963,11.963,0,0,1-1.531-.334,4.361,4.361,0,0,1-.9-.394,2.746,2.746,0,0,1-.928-.868,2.566,2.566,0,0,1-.394-1.332,4.343,4.343,0,0,1,.125-1.067,19.786,19.786,0,0,1,1.016-3.341,9.03,9.03,0,0,1,.928-1.67,8.015,8.015,0,0,1,.636-.752,4.245,4.245,0,0,1,.84-.682,3.344,3.344,0,0,1,1.118-.464,2.909,2.909,0,0,1,1.267.028,4.431,4.431,0,0,1,1.731.956,14.991,14.991,0,0,1,3.508,4.217,11.061,11.061,0,0,1,1.248,3.443c.135.854.065,1.346-.088,1.392-.357.088-.928-1.666-2.6-3.9a16.943,16.943,0,0,0-3.443-3.387,2.343,2.343,0,0,0-.877-.464.77.77,0,0,0-.594.167,2.537,2.537,0,0,0-.394.343c-.13.144-.274.325-.4.5a7.068,7.068,0,0,0-.677,1.23,21.423,21.423,0,0,0-.928,2.918,2.074,2.074,0,0,0-.088.492v.139a1.169,1.169,0,0,0,.6.38,12.164,12.164,0,0,0,1.23.362c.422.107.84.19,1.243.269.812.148,1.587.255,2.32.339,1.429.162,2.617.26,3.438.385S68.974,343.687,68.978,343.854Z" transform="translate(-43.606 -201.99)" fill="#e0e0e0"/>
      <path id="Path_577" data-name="Path 577" d="M82.076,342.524c-.06-.343,1.944-.9,5.1-1.768A40.739,40.739,0,0,0,92.5,338.9a5.346,5.346,0,0,0,1.206-.664.794.794,0,0,0,.246-.269v-.116a2.756,2.756,0,0,0-.213-.538l-.385-.8a13.781,13.781,0,0,0-.831-1.489,6.248,6.248,0,0,0-1-1.192,4.756,4.756,0,0,0-.575-.464,2.523,2.523,0,0,0-.548-.292,1.48,1.48,0,0,0-.97-.07,2.951,2.951,0,0,0-1.035.612,20.2,20.2,0,0,0-3.661,4.069c-1.768,2.617-2.167,4.64-2.533,4.584-.158,0-.269-.561-.167-1.526a11.827,11.827,0,0,1,1.225-3.911,17.632,17.632,0,0,1,3.665-4.89,5.067,5.067,0,0,1,1.8-1.137,3.791,3.791,0,0,1,2.473.042,4.839,4.839,0,0,1,1.053.52,7.082,7.082,0,0,1,.872.663,8.189,8.189,0,0,1,1.392,1.647,15.175,15.175,0,0,1,.984,1.777l.39.854a4.49,4.49,0,0,1,.376,1.155,2.482,2.482,0,0,1-.269,1.6,3.09,3.09,0,0,1-.928,1.007,7.286,7.286,0,0,1-1.763.886,28.462,28.462,0,0,1-5.8,1.448,29.777,29.777,0,0,1-3.958.339C82.633,342.77,82.1,342.691,82.076,342.524Z" transform="translate(-57.257 -200.419)" fill="#fafafa"/>
      <rect id="Rectangle_1574" data-name="Rectangle 1574" width="39.335" height="11.182" transform="translate(39.334 152.023) rotate(-179.55)" fill="#e0e0e0"/>
      <rect id="Rectangle_1575" data-name="Rectangle 1575" width="35.559" height="11.182" transform="translate(50.016 152.104) rotate(-179.55)" fill="#ebebeb"/>
      <path id="Path_578" data-name="Path 578" d="M108.064,353.512l-.246,11.233-4.148-.088.288-11.177Z" transform="translate(-68.875 -212.674)" fill="#fafafa"/>
      <path id="Path_579" data-name="Path 579" d="M43.91,353.068l-.4,11.135-4.561-.037L39.2,352.98Z" transform="translate(-34.183 -212.406)" fill="#fafafa"/>
      <path id="Path_580" data-name="Path 580" d="M127.342,68.653l.464,1.768-7.076,1.819-.362-1.392,2.737-4.338a2.387,2.387,0,0,0,.534-1.977c-.19-.738-.807-1.035-1.8-.779a2.352,2.352,0,0,0-1.7,1.434l-1.856-.612a4.525,4.525,0,0,1,3.248-2.7c2.088-.534,3.754.181,4.176,1.856.237.928.195,1.8-.807,3.359l-1.629,2.584Z" transform="translate(-76.712 -56.274)" fill="#e0e0e0"/>
      <path id="Path_581" data-name="Path 581" d="M137.785,62.975c-.793-3.095.464-5.285,2.784-5.874s4.463.719,5.257,3.809-.464,5.28-2.784,5.874S138.579,66.065,137.785,62.975Zm5.846-1.5c-.547-2.13-1.522-2.816-2.608-2.538s-1.591,1.35-1.044,3.475,1.522,2.816,2.594,2.543S144.179,63.6,143.631,61.472Z" transform="translate(-87.034 -53.733)" fill="#e0e0e0"/>
      <path id="Path_582" data-name="Path 582" d="M156.371,54.691c-.394-1.526.2-2.784,1.462-3.085s2.371.464,2.784,2-.218,2.784-1.462,3.085A2.341,2.341,0,0,1,156.371,54.691Zm3.559-.928c-.315-1.22-1.076-1.8-1.944-1.568s-1.257,1.1-.928,2.32,1.058,1.8,1.944,1.568,1.239-1.09.928-2.306Zm3.591-3.563.789-.2-4,11.019-.789.2Zm-.278,7.424c-.39-1.526.218-2.784,1.462-3.085s2.376.464,2.784,2-.2,2.784-1.462,3.081a2.33,2.33,0,0,1-2.784-1.986ZM166.8,56.7c-.311-1.206-1.058-1.8-1.944-1.568s-1.257,1.09-.928,2.32,1.076,1.791,1.944,1.568,1.239-1.095.933-2.3Z" transform="translate(-97.06 -50)" fill="#e0e0e0"/>
      <path id="Path_583" data-name="Path 583" d="M316.847,130.8c.037,1.916-1.392,3.712-4.64,3.749a7.776,7.776,0,0,1-4.347-1.141l.984-2.028a5.568,5.568,0,0,0,3.248.965c1.313-.023,2.116-.571,2.1-1.5,0-.858-.659-1.392-2.148-1.355h-1.2l-.028-1.735,2.287-2.682-4.835.084-.032-2.111,7.943-.135.032,1.7-2.5,2.979C315.761,127.884,316.819,129.127,316.847,130.8Z" transform="translate(-178.327 -89.082)" fill="#e0e0e0"/>
      <path id="Path_584" data-name="Path 584" d="M329.768,128.236c-.065-3.767,1.963-5.906,4.746-5.957s4.9,2.041,4.965,5.786-1.958,5.911-4.76,5.957S329.833,131.981,329.768,128.236Zm7.089-.125c-.046-2.575-.974-3.633-2.287-3.61s-2.185,1.109-2.139,3.712.97,3.633,2.264,3.61S336.9,130.691,336.858,128.111Z" transform="translate(-190.069 -88.743)" fill="#e0e0e0"/>
      <path id="Path_585" data-name="Path 585" d="M353.509,125.284c-.032-1.856.984-3.1,2.51-3.127s2.584,1.174,2.617,3.039-1,3.1-2.51,3.123S353.542,127.131,353.509,125.284Zm4.315-.074c-.028-1.475-.738-2.32-1.791-2.32s-1.74.928-1.712,2.385.719,2.32,1.791,2.32S357.847,126.7,357.824,125.21Zm5.071-3.09h.956L356.3,133.6h-.956Zm-2.32,8.393c-.028-1.856,1-3.1,2.51-3.123s2.584,1.188,2.617,3.034-.984,3.1-2.51,3.127-2.6-1.188-2.635-3.039Zm4.315-.074c-.023-1.457-.719-2.32-1.791-2.32s-1.735.9-1.712,2.38.738,2.32,1.791,2.32,1.721-.919,1.694-2.38Z" transform="translate(-202.796 -88.658)" fill="#e0e0e0"/>
      <path id="Path_586" data-name="Path 586" d="M437.716,56.874c-.223,1.448-1.48,2.547-3.819,2.19a5.721,5.721,0,0,1-2.988-1.35l.97-1.336a3.981,3.981,0,0,0,2.213,1.09c.951.144,1.6-.162,1.7-.831s-.26-1.127-1.745-1.355l-2.093-.32,1.123-4.542,4.992.761-.232,1.522-3.415-.52-.367,1.531.668.1C437.146,54.187,437.939,55.422,437.716,56.874Z" transform="translate(-244.285 -50.225)" fill="#f5f5f5"/>
      <path id="Path_587" data-name="Path 587" d="M447.65,56.974c.413-2.7,2.144-4.009,4.176-3.712s3.276,2.065,2.863,4.77-2.134,4-4.176,3.712S447.242,59.674,447.65,56.974Zm5.1.779c.283-1.856-.255-2.733-1.2-2.877s-1.707.529-1.99,2.389.251,2.728,1.188,2.872,1.731-.524,2.014-2.38Z" transform="translate(-253.216 -51.726)" fill="#f5f5f5"/>
      <path id="Path_588" data-name="Path 588" d="M465.525,57.5c.2-1.332,1.09-2.106,2.19-1.939a1.968,1.968,0,0,1,1.508,2.505c-.2,1.346-1.1,2.106-2.19,1.939A1.978,1.978,0,0,1,465.525,57.5Zm7.159-1.123.691.107-6.862,7.331-.691-.107Zm-4.023,1.6c.162-1.067-.246-1.772-1.007-1.888s-1.359.464-1.522,1.5.232,1.768,1.007,1.888,1.336-.441,1.5-1.5Zm1.313,4.148c.2-1.332,1.1-2.106,2.19-1.939a1.98,1.98,0,0,1,1.508,2.505c-.2,1.332-1.09,2.106-2.19,1.939a1.984,1.984,0,0,1-1.531-2.505Zm3.113.464c.158-1.053-.232-1.772-1.007-1.888s-1.359.436-1.522,1.5.246,1.777,1.007,1.893,1.336-.455,1.5-1.489Z" transform="translate(-262.819 -52.97)" fill="#f5f5f5"/>
      <path id="Path_589" data-name="Path 589" d="M40.289,148.354l-1.7,7.252-1.661-.38,1.392-5.906-1.452-.339.316-1.35Z" transform="translate(-33.068 -102.332)" fill="#f5f5f5"/>
      <path id="Path_590" data-name="Path 590" d="M44.959,154.052c.557-2.394,2.2-3.443,3.986-3.025s2.784,2.088,2.227,4.477-2.19,3.443-3.986,3.025S44.4,156.446,44.959,154.052Zm4.528,1.058c.385-1.647-.037-2.468-.877-2.663s-1.568.353-1.953,2,.032,2.468.863,2.663S49.1,156.757,49.487,155.109Z" transform="translate(-37.32 -104.105)" fill="#f5f5f5"/>
      <path id="Path_591" data-name="Path 591" d="M67.509,155.138l.612.144-6.653,6.092-.608-.144Zm-6.5.506c.278-1.183,1.127-1.814,2.1-1.587a1.768,1.768,0,0,1,1.174,2.352c-.278,1.192-1.132,1.809-2.1,1.587a1.777,1.777,0,0,1-1.165-2.352Zm2.756.645c.223-.928-.093-1.605-.766-1.763s-1.253.306-1.471,1.239.084,1.605.77,1.763,1.262-.274,1.48-1.239Zm.891,3.814a1.466,1.466,0,1,0,.014,0Zm2.761.645c.218-.928-.084-1.605-.766-1.763s-1.253.3-1.471,1.239.093,1.605.766,1.763S67.212,161.68,67.421,160.747Z" transform="translate(-45.928 -105.753)" fill="#f5f5f5"/>
    </g>
    <g id="freepik--Plant--inject-34" transform="translate(36.632 105.927)">
      <path id="Path_592" data-name="Path 592" d="M102.053,299.539a33.438,33.438,0,0,0-31.893-8.75,58.112,58.112,0,0,0,32.269,10.082" transform="translate(-59.322 -234.429)" fill="#feba30"/>
      <path id="Path_593" data-name="Path 593" d="M104.757,197.344a32.37,32.37,0,0,0-9.358-26.8c-.232,9.317,3.712,19.8,9.358,26.8" transform="translate(-72.845 -170.54)" fill="#feba30"/>
      <path id="Path_594" data-name="Path 594" d="M101.064,241.125A50.183,50.183,0,0,0,78,219.1a31.675,31.675,0,0,0,23.134,22.127" transform="translate(-63.524 -196.57)" fill="#feba30"/>
      <path id="Path_595" data-name="Path 595" d="M94.065,262.347a59.607,59.607,0,0,1-16.912-1.494A27.884,27.884,0,0,1,62.77,252.26a56.53,56.53,0,0,1,31.193,9.516" transform="translate(-55.36 -214.344)" fill="#feba30"/>
      <path id="Path_596" data-name="Path 596" d="M124,221.541c2.881-10.8,7.637-18.271,16.123-24.321A22.456,22.456,0,0,1,124,221.541" transform="translate(-88.181 -184.841)" fill="#feba30"/>
      <path id="Path_597" data-name="Path 597" d="M158.971,272.675a15.979,15.979,0,0,0-9.711-14.805c.464,5.568,4.853,12.026,9.711,14.805" transform="translate(-101.721 -217.351)" fill="#feba30"/>
      <path id="Path_598" data-name="Path 598" d="M176,246.677a23.817,23.817,0,0,1,15.6-20.317c-1.944,9.024-7.159,16.536-15.6,20.317" transform="translate(-116.055 -200.461)" fill="#feba30"/>
      <path id="Path_599" data-name="Path 599" d="M167.23,297.415a15.05,15.05,0,0,1,8.648-5.531,44.424,44.424,0,0,1,10.407-1.035,24.326,24.326,0,0,1-18.791,7.827" transform="translate(-111.354 -235.03)" fill="#feba30"/>
      <path id="Path_600" data-name="Path 600" d="M158.48,353.216a26.66,26.66,0,0,1,32.548,15.418,69.546,69.546,0,0,1-32.548-15.418" transform="translate(-106.664 -267.822)" fill="#feba30"/>
      <path id="Path_601" data-name="Path 601" d="M126.328,337.35c1.963,5.8,1.587,12.824-2.784,17.826a21.287,21.287,0,0,1,2.784-17.826" transform="translate(-87.484 -259.955)" fill="#feba30"/>
      <path id="Path_602" data-name="Path 602" d="M98.209,330.4a21.853,21.853,0,0,1-12.063,17.724,1.355,1.355,0,0,1-1.067.172c-.534-.213-.58-.928-.515-1.513.854-7.424,6.366-14.629,13.645-16.383" transform="translate(-67.03 -256.229)" fill="#feba30"/>
      <path id="Path_603" data-name="Path 603" d="M72.963,327.823a17.914,17.914,0,0,1-26.163.135c8.314-.928,17.914-1.517,26.163-.135" transform="translate(-46.8 -254.409)" fill="#feba30"/>
      <path id="Path_604" data-name="Path 604" d="M100.51,185.47a1.517,1.517,0,0,0,.074.246c.065.172.148.4.255.7.237.631.571,1.536,1,2.7s.965,2.6,1.564,4.269l.96,2.668c.329.928.677,1.958,1.039,3.011,1.475,4.213,3.109,9.279,4.876,14.893s3.559,11.864,5.35,18.429S118.967,245.253,120.3,251s2.413,10.95,3.215,15.339q.311,1.643.589,3.127c.172.988.329,1.925.464,2.784.3,1.745.557,3.248.733,4.487s.334,2.176.436,2.84c.051.311.093.557.121.738a1.557,1.557,0,0,0,.051.251,1.506,1.506,0,0,0,0-.255c-.023-.181-.051-.427-.093-.742-.088-.668-.213-1.624-.376-2.849s-.394-2.747-.677-4.5c-.144-.877-.292-1.814-.464-2.807s-.367-2.032-.566-3.132c-.779-4.4-1.856-9.6-3.15-15.362s-2.881-12.063-4.64-18.638-3.624-12.8-5.377-18.434-3.438-10.671-4.941-14.88q-.557-1.577-1.062-3l-.984-2.663c-.617-1.666-1.151-3.095-1.615-4.255s-.812-2.046-1.058-2.672l-.283-.691a1.819,1.819,0,0,0-.111-.218Z" transform="translate(-75.59 -178.543)" fill="#263238"/>
      <path id="Path_605" data-name="Path 605" d="M172.686,236.75a.892.892,0,0,0-.144.135l-.4.418c-.348.371-.849.928-1.475,1.652a58.062,58.062,0,0,0-4.9,6.533,43.664,43.664,0,0,0-5.1,10.954,103.681,103.681,0,0,0-3.072,14.495c-1.693,10.37-3.767,19.658-5.271,26.377-.756,3.345-1.392,6.055-1.8,7.957-.2.928-.367,1.647-.464,2.162-.051.237-.088.422-.121.566a1,1,0,0,0-.028.195.927.927,0,0,0,.06-.19c.037-.139.088-.325.148-.557.13-.51.306-1.23.538-2.148.464-1.893,1.1-4.6,1.9-7.934,1.559-6.7,3.67-15.993,5.363-26.377a109.92,109.92,0,0,1,3.039-14.462,44.351,44.351,0,0,1,5.029-10.917,62.114,62.114,0,0,1,4.8-6.57c.612-.742,1.1-1.308,1.434-1.693.153-.181.278-.325.371-.441A1.058,1.058,0,0,0,172.686,236.75Z" transform="translate(-102.07 -206.03)" fill="#263238"/>
      <path id="Path_606" data-name="Path 606" d="M97.84,327.989a1,1,0,0,0,.3.056l.863.093.622.065.733.107c.529.079,1.132.158,1.786.3l1.035.209,1.1.278c.77.172,1.564.464,2.413.71a35.4,35.4,0,0,1,5.266,2.32,29.542,29.542,0,0,1,4.723,3.285,23.358,23.358,0,0,1,1.809,1.74,18.257,18.257,0,0,1,1.434,1.656,16.654,16.654,0,0,1,1.062,1.462,11.652,11.652,0,0,1,.728,1.174l.441.747a1.166,1.166,0,0,0,.172.251,1.026,1.026,0,0,0-.116-.283l-.39-.775a9.309,9.309,0,0,0-.687-1.192,16,16,0,0,0-1.03-1.5,18.85,18.85,0,0,0-1.42-1.7,22.844,22.844,0,0,0-1.814-1.777,28.358,28.358,0,0,0-4.76-3.336,33.928,33.928,0,0,0-5.326-2.32c-.858-.251-1.661-.524-2.44-.687l-1.118-.264-1.044-.186c-.663-.135-1.271-.195-1.8-.26l-.742-.083-.626-.033-.868-.056A1.152,1.152,0,0,0,97.84,327.989Z" transform="translate(-74.159 -254.932)" fill="#263238"/>
      <path id="Path_607" data-name="Path 607" d="M92.73,237.17a4.054,4.054,0,0,0,.589.58l1.712,1.485c1.457,1.243,3.48,2.942,5.725,4.807s4.3,3.54,5.786,4.737l1.777,1.392a3.818,3.818,0,0,0,.677.464,4.057,4.057,0,0,0-.6-.58l-1.712-1.485c-1.457-1.243-3.48-2.942-5.725-4.807s-4.292-3.535-5.781-4.733L93.4,237.639a4.591,4.591,0,0,0-.673-.469Z" transform="translate(-71.42 -206.256)" fill="#263238"/>
      <path id="Path_608" data-name="Path 608" d="M88.32,260.885c0,.084,4.343,1.448,9.743,3.048s9.822,2.826,9.845,2.742-4.343-1.452-9.743-3.048S88.348,260.8,88.32,260.885Z" transform="translate(-69.056 -218.966)" fill="#263238"/>
      <path id="Path_609" data-name="Path 609" d="M123.08,233.488a3.921,3.921,0,0,0,.464-.626l1.151-1.754c.974-1.48,2.362-3.494,4-5.642s3.22-4.013,4.385-5.345c.547-.631,1.011-1.16,1.392-1.577a4,4,0,0,0,.464-.6,3.057,3.057,0,0,0-.575.515c-.353.348-.854.863-1.462,1.513-1.206,1.3-2.821,3.155-4.468,5.308s-3.007,4.2-3.939,5.707c-.464.756-.831,1.392-1.067,1.814a3.285,3.285,0,0,0-.348.691Z" transform="translate(-87.688 -195.948)" fill="#263238"/>
      <path id="Path_610" data-name="Path 610" d="M155.76,264.61a15.087,15.087,0,0,0,1.025,1.684c.654,1.025,1.54,2.45,2.454,4.06s1.689,3.1,2.241,4.176a14.843,14.843,0,0,0,.928,1.74,10.315,10.315,0,0,0-.724-1.856c-.5-1.114-1.243-2.626-2.162-4.25s-1.856-3.03-2.543-4.027a10.206,10.206,0,0,0-1.22-1.526Z" transform="translate(-105.206 -220.964)" fill="#263238"/>
      <path id="Path_611" data-name="Path 611" d="M167,299.331c.023.042.854-.367,2.218-.979s3.248-1.392,5.419-2.171,4.143-1.313,5.591-1.68a20.25,20.25,0,0,0,2.32-.622,2.5,2.5,0,0,0-.65.07c-.418.06-1.011.172-1.745.329a47.8,47.8,0,0,0-5.647,1.605,48.576,48.576,0,0,0-5.41,2.264c-.673.334-1.206.617-1.573.831a2.67,2.67,0,0,0-.524.353Z" transform="translate(-111.231 -236.653)" fill="#263238"/>
      <path id="Path_612" data-name="Path 612" d="M158.14,354.67a1.062,1.062,0,0,0,.269.088l.789.2,2.9.673a95.523,95.523,0,0,1,9.484,2.505,41.989,41.989,0,0,1,8.853,4.176c1.058.673,1.884,1.267,2.44,1.7a9.072,9.072,0,0,0,.877.65,2.123,2.123,0,0,0-.195-.209c-.135-.13-.334-.316-.608-.538a25.565,25.565,0,0,0-2.394-1.791,38.8,38.8,0,0,0-8.867-4.269,78.4,78.4,0,0,0-9.544-2.422l-2.928-.608A7.33,7.33,0,0,0,158.14,354.67Z" transform="translate(-106.481 -269.239)" fill="#263238"/>
      <path id="Path_613" data-name="Path 613" d="M126.3,350.889c.084,0,.6-3.048,1.16-6.839s.928-6.876.844-6.89-.6,3.053-1.16,6.844S126.207,350.88,126.3,350.889Z" transform="translate(-89.405 -259.853)" fill="#263238"/>
      <path id="Path_614" data-name="Path 614" d="M93.16,341.743a16.432,16.432,0,0,0,1.392-1.647c.831-1.035,1.981-2.459,3.285-4.009s2.505-2.932,3.382-3.93a15.392,15.392,0,0,0,1.392-1.647,2.214,2.214,0,0,0-.464.376c-.269.26-.645.64-1.109,1.123-.928.96-2.153,2.32-3.461,3.874s-2.431,3-3.22,4.074c-.394.538-.705.979-.928,1.285a1.987,1.987,0,0,0-.269.5Z" transform="translate(-71.65 -256.288)" fill="#263238"/>
      <path id="Path_615" data-name="Path 615" d="M143.09,385.46v7.6h-1.9l-6.751,21.32H119.455l-6.542-21.111-2.533-.209v-7.6Z" transform="translate(-80.881 -285.743)" fill="#455a64"/>
      <path id="Path_616" data-name="Path 616" d="M113.11,402.108c0,.088,6.612.162,14.768.162s14.773-.074,14.773-.162-6.612-.158-14.773-.158S113.11,402.02,113.11,402.108Z" transform="translate(-82.344 -294.582)" fill="#263238"/>
      <path id="Path_617" data-name="Path 617" d="M89.89,296.94a5.962,5.962,0,0,0,.96.26l2.626.636c2.218.548,5.261,1.392,8.56,2.487s6.231,2.287,8.351,3.192l2.478,1.081a6.341,6.341,0,0,0,.928.376,5.608,5.608,0,0,0-.868-.487c-.566-.3-1.392-.7-2.44-1.178a86.337,86.337,0,0,0-16.926-5.693c-1.114-.246-2.023-.427-2.654-.534A6.2,6.2,0,0,0,89.89,296.94Z" transform="translate(-69.897 -238.294)" fill="#263238"/>
      <path id="Path_618" data-name="Path 618" d="M123.83,427.628c0,.088,4.64.158,10.36.158s10.365-.07,10.365-.158-4.64-.158-10.365-.158S123.83,427.54,123.83,427.628Z" transform="translate(-88.09 -308.262)" fill="#fafafa"/>
      <path id="Path_619" data-name="Path 619" d="M122.57,423.818c0,.088,4.918.158,10.982.158s10.987-.07,10.987-.158-4.918-.158-10.987-.158S122.57,423.734,122.57,423.818Z" transform="translate(-87.415 -306.22)" fill="#fafafa"/>
    </g>
    <g id="freepik--Label--inject-34" transform="translate(154.425 75.871)">
      <path id="Path_620" data-name="Path 620" d="M456.328,275.7,425.4,240.946a13.1,13.1,0,0,0-9.688-4.389l-101.837-.738a13.093,13.093,0,0,0-13.191,13.126l.172,72.11A13.093,13.093,0,0,0,314,334.121l101.484-.427a13.089,13.089,0,0,0,9.873-4.533l31.119-36.19a13.1,13.1,0,0,0-.148-17.274Zm-17.213,12.527a19.774,19.774,0,1,1,0-.019Z" transform="translate(-300.68 -175.475)" fill="#aee5d1"/>
      <g id="Group_1755" data-name="Group 1755" transform="translate(0 60.344)" opacity="0.4">
        <path id="Path_621" data-name="Path 621" d="M456.328,275.7,425.4,240.946a13.1,13.1,0,0,0-9.688-4.389l-101.837-.738a13.093,13.093,0,0,0-13.191,13.126l.172,72.11A13.093,13.093,0,0,0,314,334.121l101.484-.427a13.089,13.089,0,0,0,9.873-4.533l31.119-36.19a13.1,13.1,0,0,0-.148-17.274Zm-17.213,12.527a19.774,19.774,0,1,1,0-.019Z" transform="translate(-300.68 -235.819)"/>
      </g>
      <path id="Path_622" data-name="Path 622" d="M467.862,275.7l-30.947-34.751a13.112,13.112,0,0,0-9.688-4.389l-101.837-.738A13.089,13.089,0,0,0,312.2,248.945l.167,72.11a13.1,13.1,0,0,0,13.2,13.065l101.48-.427a13.1,13.1,0,0,0,9.873-4.533l31.114-36.19a13.1,13.1,0,0,0-.167-17.274Zm-17.209,12.527a19.774,19.774,0,1,1,0-.019Z" transform="translate(-306.855 -175.475)" fill="#feba30"/>
      <path id="Path_623" data-name="Path 623" d="M385.239,300.184c.079-8.741,5.466-14.249,13.019-14.174s12.764,5.6,12.685,14.411-5.4,14.249-12.949,14.179S385.155,308.925,385.239,300.184Zm18.294.172c.051-5.568-2.069-8.245-5.331-8.273-3.183-.033-5.433,2.686-5.484,8.171s2.148,8.24,5.331,8.273c3.262.028,5.433-2.617,5.484-8.171ZM429.14,286.9l8.815.084-35.888,51.5-8.816-.083Zm-8.871,38.078c.083-8.741,5.466-14.249,12.949-14.179,7.553.074,12.833,5.679,12.755,14.416s-5.466,14.225-13.024,14.146C425.493,339.3,420.19,333.7,420.269,324.978Zm18.22.167c.051-5.479-2.069-8.24-5.331-8.268-3.183-.033-5.428,2.612-5.479,8.171s2.144,8.24,5.326,8.273c3.262.009,5.433-2.714,5.48-8.2Z" transform="translate(-346.005 -202.378)" fill="#fff"/>
      <path id="Path_624" data-name="Path 624" d="M610.614,356.152a4.727,4.727,0,0,1,1.016.728c.636.506,1.564,1.267,2.737,2.273s2.6,2.25,4.208,3.749,3.406,3.248,5.266,5.322a53.93,53.93,0,0,1,5.535,7.224l.659,1.053.622,1.1a24.13,24.13,0,0,1,1.179,2.32,14.519,14.519,0,0,1,1.327,5.354,8.452,8.452,0,0,1-.427,2.918,7.522,7.522,0,0,1-1.531,2.631,9.874,9.874,0,0,1-5.308,3.034,14.439,14.439,0,0,1-6.268-.148,27.418,27.418,0,0,1-5.953-2.195,37.2,37.2,0,0,1-9.98-7.424,47.989,47.989,0,0,1-3.856-4.482q-1.745-2.287-3.322-4.552a86.753,86.753,0,0,1-9.465-17.018c-.51-1.294-.951-2.538-1.332-3.735-.186-.6-.362-1.183-.506-1.763a10.961,10.961,0,0,1-.339-1.712,4.245,4.245,0,0,1,.766-3.113,4.528,4.528,0,0,1,2.2-1.531,6.164,6.164,0,0,1,1.1-.255,6.03,6.03,0,0,1,.993-.023,4.666,4.666,0,0,1,1.513.329,3.071,3.071,0,0,1,.807.5c.158.144.227.223.213.241s-.111-.032-.288-.139a3.573,3.573,0,0,0-.817-.367,4.779,4.779,0,0,0-1.438-.2,6.673,6.673,0,0,0-.928.074,6.026,6.026,0,0,0-1.007.288,4.087,4.087,0,0,0-1.893,1.429,3.633,3.633,0,0,0-.557,2.691,10.163,10.163,0,0,0,.362,1.61c.153.557.343,1.123.538,1.707q.608,1.754,1.392,3.656a89.459,89.459,0,0,0,9.581,16.7q1.577,2.227,3.327,4.487a47.377,47.377,0,0,0,3.791,4.361,36.506,36.506,0,0,0,9.669,7.182,26.565,26.565,0,0,0,5.707,2.106,13.348,13.348,0,0,0,5.753.162,8.783,8.783,0,0,0,4.7-2.645,6.82,6.82,0,0,0,1.707-4.76,13.516,13.516,0,0,0-1.225-4.969,23.484,23.484,0,0,0-1.109-2.246l-.58-1.072-.631-1.049a54.653,54.653,0,0,0-5.331-7.187c-1.791-2.079-3.531-3.86-5.1-5.4s-2.932-2.83-4.06-3.883l-2.561-2.431a5.1,5.1,0,0,1-.854-.928Z" transform="translate(-452.994 -234.481)" fill="#263238"/>
      <path id="Path_625" data-name="Path 625" d="M529.794,165.893c-.065,0-1.364-9.071-2.9-20.28s-2.733-20.3-2.663-20.313,1.364,9.071,2.9,20.28S529.864,165.884,529.794,165.893Z" transform="translate(-420.506 -116.234)" fill="#263238"/>
      <path id="Path_626" data-name="Path 626" d="M596.129,105.76a.584.584,0,0,1-.042.139l-.148.4-.589,1.545-2.209,5.67c-1.856,4.788-4.4,11.414-7.1,18.777s-5.043,14.058-6.714,18.916c-.831,2.417-1.5,4.38-1.972,5.758-.232.663-.413,1.188-.543,1.564-.06.167-.111.3-.148.4a.68.68,0,0,1-.056.135.489.489,0,0,1,.032-.144l.125-.413c.116-.376.283-.928.5-1.577.436-1.369,1.086-3.345,1.9-5.781,1.633-4.872,3.953-11.6,6.653-18.944s5.257-13.984,7.159-18.758c.928-2.385,1.735-4.315,2.287-5.642l.636-1.526c.07-.162.13-.292.172-.394Z" transform="translate(-448.586 -105.76)" fill="#263238"/>
      <path id="Path_627" data-name="Path 627" d="M643.3,182.719c.042.051-6.6,5.252-14.847,11.6s-14.94,11.479-14.982,11.423,6.6-5.252,14.847-11.6S643.261,182.664,643.3,182.719Z" transform="translate(-468.344 -147.012)" fill="#263238"/>
      <path id="Path_628" data-name="Path 628" d="M488.462,199.378c-.056.042-2.621-3.248-5.735-7.312s-5.6-7.424-5.568-7.456,2.621,3.248,5.735,7.312S488.513,199.336,488.462,199.378Z" transform="translate(-395.278 -148.026)" fill="#263238"/>
      <path id="Path_629" data-name="Path 629" d="M650.079,265.457c0,.065-4.088-1.067-9.089-2.524s-9.038-2.691-9.02-2.756,4.088,1.067,9.089,2.524S650.1,265.392,650.079,265.457Z" transform="translate(-478.261 -188.53)" fill="#263238"/>
      <path id="Path_630" data-name="Path 630" d="M544.99,265.665l3.016-1.735,1.6-3.09,1.74,3.016,3.09,1.605-3.016,1.735-1.605,3.09-1.735-3.016Z" transform="translate(-431.637 -188.887)" fill="#fff"/>
      <path id="Path_631" data-name="Path 631" d="M509.85,258.969l1.058-.608.561-1.081.608,1.053,1.081.561-1.058.608-.561,1.081-.608-1.053Z" transform="translate(-412.801 -186.979)" fill="#fff"/>
      <path id="Path_632" data-name="Path 632" d="M532.29,303.076l2.041-1.174,1.086-2.093,1.174,2.041,2.093,1.086-2.041,1.174-1.086,2.092-1.174-2.041Z" transform="translate(-424.83 -209.776)" fill="#fff"/>
    </g>
    <g id="freepik--Floor--inject-34" transform="translate(27.83 234.443)">
      <path id="Path_633" data-name="Path 633" d="M347.5,447.651c0,.065-71.568.121-159.829.121s-159.838-.056-159.838-.121,71.549-.121,159.838-.121S347.5,447.581,347.5,447.651Z" transform="translate(-27.83 -447.53)" fill="#263238"/>
    </g>
    <g id="freepik--Character--inject-34" transform="translate(79.685 108.865)">
      <path id="Path_634" data-name="Path 634" d="M204.583,430.06s-19.352,5.364-20.155,5.637c-1.165.408-.97,4.686.849,4.64.858-.032,14.88.52,16.652.408s6.542-1.99,6.542-1.99Z" transform="translate(-163.236 -312.588)" fill="#455a64"/>
      <path id="Path_635" data-name="Path 635" d="M208.739,441.532a16.938,16.938,0,0,0-.854-2.079c-.626-1.067-1.429-1.707-1.369-1.782a3.311,3.311,0,0,1,1.652,1.619A3.523,3.523,0,0,1,208.739,441.532Z" transform="translate(-175.465 -316.665)" fill="#263238"/>
      <path id="Path_636" data-name="Path 636" d="M213.509,439.723c-.1,0-.292-.9-.807-1.912s-1.127-1.721-1.058-1.786a3.538,3.538,0,0,1,1.346,1.642A3.762,3.762,0,0,1,213.509,439.723Z" transform="translate(-178.212 -315.783)" fill="#263238"/>
      <path id="Path_637" data-name="Path 637" d="M217.986,438.464a12.72,12.72,0,0,0-.464-2.051,18.181,18.181,0,0,0-1.058-1.81,2.775,2.775,0,0,1,1.359,1.694A3.183,3.183,0,0,1,217.986,438.464Z" transform="translate(-180.796 -315.021)" fill="#263238"/>
      <path id="Path_638" data-name="Path 638" d="M218.75,432.332a3.5,3.5,0,0,1-.209-1.438,6.961,6.961,0,0,1,.209-1.591,6.106,6.106,0,0,1,.288-.9,1.063,1.063,0,0,1,.311-.464.515.515,0,0,1,.663.033.872.872,0,0,1,.26.547,3.818,3.818,0,0,1,0,.51,4.177,4.177,0,0,1-.121.928,5.814,5.814,0,0,1-.594,1.48,3.93,3.93,0,0,1-.872,1.165c-.042-.028.283-.464.668-1.271a6.255,6.255,0,0,0,.506-1.438,4.251,4.251,0,0,0,.1-.886c0-.3,0-.668-.181-.812a.186.186,0,0,0-.255-.023.8.8,0,0,0-.213.339,6.651,6.651,0,0,0-.292.854,7.568,7.568,0,0,0-.255,1.513C218.718,431.775,218.806,432.327,218.75,432.332Z" transform="translate(-181.908 -311.394)" fill="#263238"/>
      <path id="Path_639" data-name="Path 639" d="M219.06,436.866a2.733,2.733,0,0,1,1.253-.2,5.592,5.592,0,0,1,1.392.172,2.868,2.868,0,0,1,.793.292.812.812,0,0,1,.436.882.97.97,0,0,1-.7.691,1.767,1.767,0,0,1-.868,0,4.134,4.134,0,0,1-2.157-1.508,8.736,8.736,0,0,1,1.03.7,3.447,3.447,0,0,0,1.188.515,1.508,1.508,0,0,0,.719,0,.664.664,0,0,0,.464-.464.5.5,0,0,0-.288-.538,2.82,2.82,0,0,0-.705-.274,6.319,6.319,0,0,0-1.3-.227C219.543,436.838,219.069,436.917,219.06,436.866Z" transform="translate(-182.19 -316.123)" fill="#263238"/>
      <path id="Path_640" data-name="Path 640" d="M203.375,442.663a10.461,10.461,0,0,0-.385-1.745c-.385-.9-1.007-1.443-.928-1.517s.84.38,1.248,1.392A2.239,2.239,0,0,1,203.375,442.663Z" transform="translate(-173.075 -317.591)" fill="#263238"/>
      <path id="Path_641" data-name="Path 641" d="M209.975,448.364a4.591,4.591,0,0,1-.752.353,17.013,17.013,0,0,1-2.157.668,30.554,30.554,0,0,1-7.4.7c-2.9-.032-5.521-.162-7.424-.241L190,449.728a4.121,4.121,0,0,1-.821-.088,3.761,3.761,0,0,1,.844-.056h2.25l7.424.144a34.549,34.549,0,0,0,7.345-.6C208.89,448.782,209.975,448.3,209.975,448.364Z" transform="translate(-166.174 -322.397)" fill="#263238"/>
      <path id="Path_642" data-name="Path 642" d="M224.4,447.434a15.644,15.644,0,0,1-1.452-.659,6.792,6.792,0,0,0-3.665-.608,5.811,5.811,0,0,0-3.169,1.884A10.854,10.854,0,0,1,215,449.192a6.073,6.073,0,0,1,.951-1.294,7.608,7.608,0,0,1,1.285-1.2,4.6,4.6,0,0,1,2-.849,6.412,6.412,0,0,1,3.814.724,5.13,5.13,0,0,1,1.355.863Z" transform="translate(-180.014 -321.025)" fill="#263238"/>
      <path id="Path_643" data-name="Path 643" d="M192.354,445.591a6.963,6.963,0,0,1,.283-.733,3.568,3.568,0,0,0-.64-3.47c-.306-.371-.552-.547-.529-.585s.306.1.663.464a3.3,3.3,0,0,1,.677,3.665C192.6,445.387,192.378,445.61,192.354,445.591Z" transform="translate(-167.399 -318.344)" fill="#263238"/>
      <path id="Path_644" data-name="Path 644" d="M268.319,431.3S288.2,434.32,289,434.5c1.211.269,1.522,4.538-.288,4.686-.858.07-14.717,2.287-16.49,2.389s-7.331-1.355-7.331-1.355Z" transform="translate(-206.756 -313.253)" fill="#455a64"/>
      <path id="Path_645" data-name="Path 645" d="M291.36,440.3a18.28,18.28,0,0,1,.6-2.167c.492-1.137,1.22-1.856,1.151-1.935a3.328,3.328,0,0,0-1.448,1.81A3.5,3.5,0,0,0,291.36,440.3Z" transform="translate(-220.903 -315.877)" fill="#263238"/>
      <path id="Path_646" data-name="Path 646" d="M286.823,439.111c.1,0,.181-.928.575-2s.928-1.856.835-1.9A3.493,3.493,0,0,0,287.092,437,3.739,3.739,0,0,0,286.823,439.111Z" transform="translate(-218.482 -315.352)" fill="#263238"/>
      <path id="Path_647" data-name="Path 647" d="M282.441,438.358a13.012,13.012,0,0,1,.2-2.088,20.7,20.7,0,0,1,.835-1.926,2.758,2.758,0,0,0-1.146,1.856A2.976,2.976,0,0,0,282.441,438.358Z" transform="translate(-216.039 -314.882)" fill="#263238"/>
      <path id="Path_648" data-name="Path 648" d="M280.543,432.519a3.35,3.35,0,0,0,.037-1.452,6.693,6.693,0,0,0-.385-1.545,6.428,6.428,0,0,0-.394-.863,1.067,1.067,0,0,0-.362-.431.52.52,0,0,0-.659.111.868.868,0,0,0-.19.575,3.667,3.667,0,0,0,.037.51,4.176,4.176,0,0,0,.232.928,5.823,5.823,0,0,0,.766,1.392,4.013,4.013,0,0,0,1,1.058,12.924,12.924,0,0,0-.812-1.183,6.416,6.416,0,0,1-.677-1.392,4.226,4.226,0,0,1-.195-.868c-.028-.3-.074-.663.079-.826a.186.186,0,0,1,.251-.051.808.808,0,0,1,.255.311,6.5,6.5,0,0,1,.39.812,7.831,7.831,0,0,1,.436,1.471C280.51,431.967,280.492,432.519,280.543,432.519Z" transform="translate(-214.099 -311.567)" fill="#263238"/>
      <path id="Path_649" data-name="Path 649" d="M278.405,437.02a2.714,2.714,0,0,0-1.253-.07,5.758,5.758,0,0,0-1.346.329,3.043,3.043,0,0,0-.752.385.817.817,0,0,0-.329.928.984.984,0,0,0,.78.608,1.813,1.813,0,0,0,.863-.107,4.175,4.175,0,0,0,1.963-1.754,8.758,8.758,0,0,0-.928.817,3.424,3.424,0,0,1-1.118.654,1.559,1.559,0,0,1-.715.074.673.673,0,0,1-.524-.4.51.51,0,0,1,.223-.575,3.025,3.025,0,0,1,.663-.353,6.189,6.189,0,0,1,1.271-.38C277.923,437.053,278.405,437.071,278.405,437.02Z" transform="translate(-212.008 -316.259)" fill="#263238"/>
      <path id="Path_650" data-name="Path 650" d="M297.584,440.8a11.038,11.038,0,0,1,.172-1.782,12.2,12.2,0,0,1,.766-1.615c-.07-.065-.793.464-1.076,1.531A2.294,2.294,0,0,0,297.584,440.8Z" transform="translate(-224.148 -316.522)" fill="#263238"/>
      <path id="Path_651" data-name="Path 651" d="M269.17,448.714a4.067,4.067,0,0,0,.789.26,16.479,16.479,0,0,0,2.218.408,30.6,30.6,0,0,0,7.424-.181c2.881-.38,5.461-.821,7.335-1.123l2.218-.385a3.812,3.812,0,0,0,.8-.186,3.88,3.88,0,0,0-.821.06l-2.232.283-7.345,1.025a34.589,34.589,0,0,1-7.363.278C270.316,449,269.184,448.663,269.17,448.714Z" transform="translate(-209.051 -321.939)" fill="#263238"/>
      <path id="Path_652" data-name="Path 652" d="M268.06,448.67c.033.042.52-.329,1.364-.826a6.719,6.719,0,0,1,3.568-1.039,5.807,5.807,0,0,1,3.368,1.494,12.007,12.007,0,0,0,1.243,1,5.827,5.827,0,0,0-1.095-1.174,7.613,7.613,0,0,0-1.42-1.044,4.639,4.639,0,0,0-2.088-.6,6.417,6.417,0,0,0-3.712,1.169A5.132,5.132,0,0,0,268.06,448.67Z" transform="translate(-208.456 -321.39)" fill="#263238"/>
      <path id="Path_653" data-name="Path 653" d="M353.194,243.827a1.22,1.22,0,0,0-.58-.571l.464-.928a2.715,2.715,0,0,0-.274-.956c-.232-.4-1.044-.367-1.044-.367l.125-.264a1.2,1.2,0,0,0-.1-1.169c-.037-.051-.074-.1-.121-.158a1.935,1.935,0,0,0-1.025-.52s.464-.891.255-1.267a1.93,1.93,0,0,0-1.977-.779,28.033,28.033,0,0,0-3.6,1.717.849.849,0,0,1-1.206-.464,12.2,12.2,0,0,0-1.758-3.3,1.823,1.823,0,0,0-2.167-.779.394.394,0,0,0-.195.571,21.163,21.163,0,0,1,1.262,2.32,51.982,51.982,0,0,1,.464,5.183l-1.253,2.385-12.634,19.955s-19.092-12.866-19.023-13.186L307.91,266l14.383,9.558a10.133,10.133,0,0,0,14.889-4.38l9.683-21.018,1.174-1.717,4.561-2.923S353.356,244.212,353.194,243.827Z" transform="translate(-229.816 -207.444)" fill="#ffbe9d"/>
      <path id="Path_654" data-name="Path 654" d="M394.506,243.056a.851.851,0,0,1-.088.083l-.274.223c-.255.195-.6.464-1.021.793l-1.526,1.16a9.583,9.583,0,0,1-.928.668,1.341,1.341,0,0,1-1.211.162.928.928,0,0,1-.464-.464,1.333,1.333,0,0,1-.107-.608,1.754,1.754,0,0,1,.464-1.039,6.5,6.5,0,0,1,.761-.7l.687-.571,1-.821.274-.218c.065-.046.1-.074.1-.07l-.088.088-.26.237-.974.844-.677.58a6.449,6.449,0,0,0-.742.7,1.628,1.628,0,0,0-.464.974.96.96,0,0,0,.487.96,1,1,0,0,0,.571.056,1.623,1.623,0,0,0,.538-.209c.325-.2.622-.464.928-.654l1.536-1.146,1.044-.761.288-.2Z" transform="translate(-273.221 -211.6)" fill="#eb996e"/>
      <path id="Path_655" data-name="Path 655" d="M397.3,249.3a1.218,1.218,0,0,1-.213.176c-.139.107-.348.26-.608.441-.515.357-1.243.84-2.074,1.327-.209.121-.408.246-.622.343a1.345,1.345,0,0,1-.663.125,1.039,1.039,0,0,1-.858-.691,1.021,1.021,0,0,1,.056-.752.969.969,0,0,1,.116-.172c.033-.037.051-.051.056-.051a2.053,2.053,0,0,0-.13.241,1.016,1.016,0,0,0,0,.705.928.928,0,0,0,.789.612,1.257,1.257,0,0,0,.608-.125,6.69,6.69,0,0,0,.608-.334c.83-.487,1.564-.956,2.092-1.3l.622-.408a1.621,1.621,0,0,1,.223-.139Z" transform="translate(-275.008 -215.696)" fill="#eb996e"/>
      <path id="Path_656" data-name="Path 656" d="M399.055,253.82a1.185,1.185,0,0,1-.218.125l-.617.311c-.524.26-1.253.608-2.055.988a5.63,5.63,0,0,1-.6.26,1.165,1.165,0,0,1-.626.051.673.673,0,0,1-.464-.334.783.783,0,0,1-.074-.492,1.062,1.062,0,0,1,.367-.6c.125-.107.209-.148.213-.139a2.37,2.37,0,0,1-.186.172,1.086,1.086,0,0,0-.311.58.686.686,0,0,0,.074.431.589.589,0,0,0,.4.278,1.049,1.049,0,0,0,.566-.056,5.322,5.322,0,0,0,.589-.26c.807-.376,1.536-.715,2.069-.956l.636-.274A.856.856,0,0,1,399.055,253.82Z" transform="translate(-276.169 -218.118)" fill="#eb996e"/>
      <path id="Path_657" data-name="Path 657" d="M400.443,257.577a4.848,4.848,0,0,1-.724.19c-.464.1-1.076.237-1.768.376l-.506.1a1.939,1.939,0,0,1-.487.056.686.686,0,0,1-.431-.153.464.464,0,0,1-.167-.367.663.663,0,0,1,.278-.487.349.349,0,0,1,.186-.083,1.029,1.029,0,0,0-.158.121.631.631,0,0,0-.223.464.371.371,0,0,0,.144.292.594.594,0,0,0,.371.121,2.088,2.088,0,0,0,.464-.06l.506-.107c.691-.139,1.318-.26,1.772-.343A5.328,5.328,0,0,1,400.443,257.577Z" transform="translate(-277.228 -219.936)" fill="#eb996e"/>
      <path id="Path_658" data-name="Path 658" d="M391.515,255.7a6.675,6.675,0,0,0-1.3-.13,6.244,6.244,0,0,0-1.276.255,2.38,2.38,0,0,1,1.271-.371A2.441,2.441,0,0,1,391.515,255.7Z" transform="translate(-273.251 -218.992)" fill="#eb996e"/>
      <path id="Path_659" data-name="Path 659" d="M241.6,209.215s-6.421-5.415-4.937-9.145,5.609-5.568,7.637-12.365c1.619-5.419,11.265-15.877,22.7-7.99,0,0,3.87-.608,6.069,1.155s2.733,5.28,3.665,9.34c1.438,6.259,2.227,11.07-.557,14.133s-3.8,3.883-3.656,7.363c.195,4.542,2.2,3.934.464,7.247l-9.586-3.127-.1-2.64-.97,2.482-5.568-2Z" transform="translate(-191.506 -176.872)" fill="#263238"/>
      <path id="Path_660" data-name="Path 660" d="M297.764,197.36c-.622,1.429-.111,3.081.464,4.528s1.276,2.974.979,4.505c-.529,2.714-3.9,4.227-4.273,6.96-.2,1.466.534,2.96.251,4.417a4.965,4.965,0,0,1-2.7,3.174c-1.248.705-2.626,1.178-3.8,2,0,0-2.58,2.116-7.025-1.369" transform="translate(-215.746 -187.854)" fill="#263238"/>
      <path id="Path_661" data-name="Path 661" d="M263.038,189.639a2.366,2.366,0,0,0-2.784,1.573h0l-9.21,30.576c-1.192,3.577,3.308,7.4,7.145,8.639h0c3.879,1.257,4.663-.585,5.892-3.953,2.06-5.623,2.784-7.748,2.784-7.716s5.141.882,8.351-5.1c1.6-2.983,3.248-8.212,4.44-12.527,1.086-3.888.186-9.437-3.744-10.351Z" transform="translate(-199.23 -183.683)" fill="#ffbe9d"/>
      <path id="Path_662" data-name="Path 662" d="M303.99,220.121a.858.858,0,0,1-1.072.547.826.826,0,0,1-.585-1.025.863.863,0,0,1,1.072-.547.826.826,0,0,1,.585,1.025Z" transform="translate(-226.81 -199.484)" fill="#263238"/>
      <path id="Path_663" data-name="Path 663" d="M304.982,217.218c-.135.07-.594-.6-1.471-.9s-1.67-.088-1.726-.227c-.033-.065.139-.223.464-.329a2.38,2.38,0,0,1,1.429.051,2.292,2.292,0,0,1,1.127.854C305.024,216.944,305.052,217.171,304.982,217.218Z" transform="translate(-226.531 -197.672)" fill="#263238"/>
      <path id="Path_664" data-name="Path 664" d="M285.275,214.143a.863.863,0,0,1-1.067.552.826.826,0,0,1-.585-1.025.863.863,0,0,1,1.067-.552.826.826,0,0,1,.585,1.025Z" transform="translate(-216.781 -196.281)" fill="#263238"/>
      <path id="Path_665" data-name="Path 665" d="M286.157,211.531c-.139.074-.6-.6-1.475-.9s-1.67-.088-1.726-.227c-.033-.065.139-.218.487-.325a2.343,2.343,0,0,1,1.429.051,2.259,2.259,0,0,1,1.127.849C286.194,211.276,286.222,211.5,286.157,211.531Z" transform="translate(-216.438 -194.625)" fill="#263238"/>
      <path id="Path_666" data-name="Path 666" d="M291.84,221.1a6.033,6.033,0,0,1,1.513.237c.232.056.464.083.547-.056a1.221,1.221,0,0,0,.079-.715c0-.612-.042-1.257-.065-1.93a30.663,30.663,0,0,1,.06-4.974,30.636,30.636,0,0,1,.339,4.965c0,.673.023,1.318.037,1.935a1.355,1.355,0,0,1-.19.928.58.58,0,0,1-.464.2,1.479,1.479,0,0,1-.394-.079A6.057,6.057,0,0,1,291.84,221.1Z" transform="translate(-221.202 -196.592)" fill="#263238"/>
      <path id="Path_667" data-name="Path 667" d="M276.477,246.44a17.041,17.041,0,0,1-7.707-5.22s.626,5.1,7.182,6.723Z" transform="translate(-208.836 -211.364)" fill="#eb996e"/>
      <path id="Path_668" data-name="Path 668" d="M286.175,232.7a1.656,1.656,0,0,0-1.211-1.076,1.522,1.522,0,0,0-1.179.186.956.956,0,0,0-.431,1.021,1.114,1.114,0,0,0,1.044.687,3.434,3.434,0,0,0,1.35-.278,1.039,1.039,0,0,0,.343-.172.316.316,0,0,0,.111-.325" transform="translate(-216.641 -206.198)" fill="#eb996e"/>
      <path id="Path_669" data-name="Path 669" d="M286.37,206.655c-.134.232-1.021-.06-2.116-.135s-2.009.051-2.111-.195c-.042-.121.153-.325.547-.5a3.475,3.475,0,0,1,1.638-.246,3.517,3.517,0,0,1,1.582.5C286.273,206.312,286.435,206.544,286.37,206.655Z" transform="translate(-216.002 -192.254)" fill="#263238"/>
      <path id="Path_670" data-name="Path 670" d="M307.237,210.888c-.241.148-.928-.269-1.8-.529s-1.675-.325-1.791-.585c-.046-.125.13-.3.51-.394a3.2,3.2,0,0,1,2.9.9C307.307,210.563,307.349,210.809,307.237,210.888Z" transform="translate(-227.524 -194.265)" fill="#263238"/>
      <path id="Path_671" data-name="Path 671" d="M254,208.3q2.589-8.672,5.183-17.353a5.91,5.91,0,0,1,1.749-3.2,5.462,5.462,0,0,1,3.355-.812,63.5,63.5,0,0,1,15.033,1.485,2.594,2.594,0,0,1-1.926,2.677,11.5,11.5,0,0,1-3.573.26,4.486,4.486,0,0,0-3.322,1.114c-.812.886-.951,2.394-1.768,3.378-1.392,1.689-4.347,1.332-5.744,3.03-1.053,1.285-.77,3.164-1.118,4.788-.394,1.856-.394,1.856-1.856,4.556-.886,1.661,1.341,4.835-.877,8.95l-4.306-1.225,1.888-6.356-2.561,5.962Z" transform="translate(-200.919 -182.258)" fill="#263238"/>
      <path id="Path_672" data-name="Path 672" d="M285.547,229.449c.088.051.042.283.037.617a2.241,2.241,0,0,0,1.09,2.079c.274.186.492.278.464.38s-.264.19-.677.093a2.037,2.037,0,0,1-1.392-2.663C285.241,229.556,285.468,229.4,285.547,229.449Z" transform="translate(-217.507 -205.05)" fill="#263238"/>
      <path id="Path_673" data-name="Path 673" d="M275.145,199.4a.928.928,0,0,1-.241.135,7.061,7.061,0,0,0-.682.38,8.249,8.249,0,0,0-3.8,5.73,9.353,9.353,0,0,0,0,2.492,14.958,14.958,0,0,1,.162,2.728,4.934,4.934,0,0,1-.292,1.392,8.714,8.714,0,0,1-.617,1.211,6.032,6.032,0,0,0-.974,2.269,7.68,7.68,0,0,0,.06,2.246c.1.71.223,1.392.269,1.981a5.238,5.238,0,0,1-.422,2.858,3,3,0,0,1-.464.645c-.135.125-.209.186-.213.176a4.176,4.176,0,0,0,.589-.863,5.373,5.373,0,0,0,.339-2.784c-.06-.6-.195-1.257-.3-1.967a7.777,7.777,0,0,1-.079-2.32c.181-1.707,1.828-2.96,1.856-4.835a15.126,15.126,0,0,0-.153-2.686,9.4,9.4,0,0,1,0-2.552,8.176,8.176,0,0,1,1.758-3.907,7.744,7.744,0,0,1,2.213-1.856,4.984,4.984,0,0,1,.71-.339A.988.988,0,0,1,275.145,199.4Z" transform="translate(-208.386 -188.948)" fill="#263238"/>
      <path id="Path_674" data-name="Path 674" d="M320.637,220.45l-.079.065c-.056.037-.135.1-.246.167a3.888,3.888,0,0,1-1.053.427,4.38,4.38,0,0,1-1.8.065,3.976,3.976,0,0,1-2.134-1.062,4.343,4.343,0,0,1-1.276-2.584,3.981,3.981,0,0,1,.107-1.629,5.019,5.019,0,0,1,.761-1.55,20.636,20.636,0,0,1,2.566-2.617,9.741,9.741,0,0,0,1.262-1.424,7.043,7.043,0,0,0,.868-1.745,11.33,11.33,0,0,0,.487-3.828,27.67,27.67,0,0,0-.376-3.614,33.783,33.783,0,0,0-1.54-5.953,35.928,35.928,0,0,0-1.624-3.828c-.218-.441-.394-.779-.515-1.007a2.124,2.124,0,0,1-.181-.334,2.37,2.37,0,0,1,.213.334c.135.218.325.552.557.988a31.262,31.262,0,0,1,1.7,3.809,32.807,32.807,0,0,1,1.605,5.976,27.174,27.174,0,0,1,.394,3.647,11.4,11.4,0,0,1-.5,3.907,7.054,7.054,0,0,1-.9,1.8,10.1,10.1,0,0,1-1.3,1.462,20.777,20.777,0,0,0-2.547,2.575,4.787,4.787,0,0,0-.738,1.475,3.926,3.926,0,0,0-.116,1.55,4.222,4.222,0,0,0,1.2,2.487,3.916,3.916,0,0,0,2.037,1.053,4.315,4.315,0,0,0,1.758-.028,4.983,4.983,0,0,0,1.4-.589Z" transform="translate(-233.083 -183.909)" fill="#263238"/>
      <path id="Path_675" data-name="Path 675" d="M243.23,212.449a4.008,4.008,0,0,0,1.489-.742,5.934,5.934,0,0,0,1.977-3.986,23.234,23.234,0,0,0,.083-3.169,13.993,13.993,0,0,1,.283-3.665,6.829,6.829,0,0,1,.747-1.856,4.408,4.408,0,0,1,1.466-1.5c1.257-.77,2.784-.733,4.176-1.211a4.412,4.412,0,0,0,1.777-1.165,11.091,11.091,0,0,0,1.253-1.693,9.558,9.558,0,0,1,2.589-3.127,4.43,4.43,0,0,1,1.8-.654,9.747,9.747,0,0,1,1.786-.074,18.317,18.317,0,0,0,3.169-.028,9.423,9.423,0,0,0,4.213-1.68,11.68,11.68,0,0,0,.965-.789l.237-.223.088-.074a6.5,6.5,0,0,1-1.234,1.16,9.363,9.363,0,0,1-4.245,1.777,18.556,18.556,0,0,1-3.2.056,5.925,5.925,0,0,0-3.457.719,9.856,9.856,0,0,0-2.51,3.062,11.214,11.214,0,0,1-1.281,1.735,4.64,4.64,0,0,1-1.856,1.225c-1.429.492-2.951.464-4.125,1.188a5.053,5.053,0,0,0-2.12,3.211,13.859,13.859,0,0,0-.3,3.605,22.093,22.093,0,0,1-.111,3.2,5.971,5.971,0,0,1-2.088,4.037,3.34,3.34,0,0,1-1.118.58,3.076,3.076,0,0,1-.32.074A.343.343,0,0,1,243.23,212.449Z" transform="translate(-195.146 -182.199)" fill="#455a64"/>
      <path id="Path_676" data-name="Path 676" d="M253.25,191.972a6.1,6.1,0,0,0,.928.246,4.519,4.519,0,0,0,2.505-.413,10.481,10.481,0,0,0,3-2.362c.51-.52,1.044-1.076,1.647-1.6a7.508,7.508,0,0,1,2.092-1.336,6.778,6.778,0,0,1,2.445-.464,20.17,20.17,0,0,1,2.3.125c.724.07,1.392.144,2.051.148a9.188,9.188,0,0,0,1.777-.144,4.895,4.895,0,0,0,2.32-1.03,8.933,8.933,0,0,0,.654-.682,1.109,1.109,0,0,1-.125.213,1.9,1.9,0,0,1-.181.241,2.423,2.423,0,0,1-.288.3,4.825,4.825,0,0,1-2.362,1.127,9.064,9.064,0,0,1-1.809.176c-.654,0-1.345-.065-2.074-.125a19.922,19.922,0,0,0-2.269-.111,6.565,6.565,0,0,0-2.362.436,11.95,11.95,0,0,0-3.67,2.872,10.23,10.23,0,0,1-3.085,2.357,4.449,4.449,0,0,1-2.589.353,3,3,0,0,1-.687-.218A1.211,1.211,0,0,1,253.25,191.972Z" transform="translate(-200.517 -180.939)" fill="#455a64"/>
      <path id="Path_677" data-name="Path 677" d="M315.49,206.176a3.5,3.5,0,0,0,.227-.886,3.8,3.8,0,0,0-.659-2.343,15.128,15.128,0,0,0-2.547-2.7,6.834,6.834,0,0,1-1.35-1.782,6.26,6.26,0,0,1-.575-2.32c-.107-1.647.176-3.187.139-4.584A5.568,5.568,0,0,0,309.7,188.1a3.447,3.447,0,0,0-2.037-1.3,3.947,3.947,0,0,0-.928-.023.8.8,0,0,1,.237-.065,2.542,2.542,0,0,1,.691,0,3.452,3.452,0,0,1,2.157,1.29,5.641,5.641,0,0,1,1.109,3.563c.019,1.415-.227,2.965-.121,4.57a6.078,6.078,0,0,0,.547,2.246,6.575,6.575,0,0,0,1.295,1.731,14.466,14.466,0,0,1,2.533,2.784,3.791,3.791,0,0,1,.608,2.445,2.2,2.2,0,0,1-.195.663A.838.838,0,0,1,315.49,206.176Z" transform="translate(-229.189 -182.134)" fill="#455a64"/>
      <path id="Path_678" data-name="Path 678" d="M234.825,206.276a2.751,2.751,0,0,1-.3-.162,3.452,3.452,0,0,1-.719-.65,4.2,4.2,0,0,1-.891-3.387,4.1,4.1,0,0,1,.394-1.137,4.519,4.519,0,0,1,.817-1.011,10.407,10.407,0,0,1,2.413-1.485,9.424,9.424,0,0,0,2.58-1.642,6.083,6.083,0,0,0,1.461-2.886c.278-1.1.464-2.213.831-3.248a14.077,14.077,0,0,1,1.35-2.826,14.732,14.732,0,0,1,3.526-3.921,13.732,13.732,0,0,1,3.071-1.8,8.594,8.594,0,0,1,.9-.339,1.48,1.48,0,0,1,.325-.093c0,.028-.436.167-1.192.52a14.236,14.236,0,0,0-3,1.856,14.81,14.81,0,0,0-3.443,3.9,13.859,13.859,0,0,0-1.313,2.784c-.353,1.011-.538,2.111-.826,3.248a6.254,6.254,0,0,1-1.526,2.993,9.562,9.562,0,0,1-2.645,1.675,10.425,10.425,0,0,0-2.38,1.434,4.455,4.455,0,0,0-.789.956,3.861,3.861,0,0,0-.39,1.076,4.33,4.33,0,0,0,.107,1.963,3.967,3.967,0,0,0,.687,1.332A4.957,4.957,0,0,0,234.825,206.276Z" transform="translate(-189.585 -179.455)" fill="#263238"/>
      <path id="Path_679" data-name="Path 679" d="M322.483,207.664c-.023,0,.195-.223.492-.663a5.615,5.615,0,0,0,.826-2.055,7.79,7.79,0,0,0-.116-3.276,13.191,13.191,0,0,0-1.661-3.689c-.766-1.23-1.591-2.343-2.287-3.4a19.152,19.152,0,0,1-1.638-2.932,9.668,9.668,0,0,1-.673-2.167,5.574,5.574,0,0,1-.074-.612.748.748,0,0,1,0-.213s.056.292.172.807a10.909,10.909,0,0,0,.728,2.134,20.884,20.884,0,0,0,1.67,2.877c.7,1.044,1.536,2.153,2.32,3.4a13.088,13.088,0,0,1,1.675,3.763,7.818,7.818,0,0,1,.065,3.364,5.378,5.378,0,0,1-.928,2.074,3.615,3.615,0,0,1-.408.464.779.779,0,0,1-.162.125Z" transform="translate(-234.873 -183.191)" fill="#263238"/>
      <path id="Path_680" data-name="Path 680" d="M179.011,368.662l-3.809,6.63s-18.935-6.927-30.019-4.909c-4.217.766-8.727,10.328-2.584,16.471,5.99,5.99,16.7,14.462,36.807,17.2.5.065,8.737,1.833,8.226,1.772s11.544,1.856,11.544,1.856l2.83-10.7,22.452,3.522c13.232-.9,19.71-15.051,11.738-19.607-7.424-4.245-21.408-4.589-21.408-4.589l-5.067-7.943Z" transform="translate(-139.594 -279.52)" fill="#263238"/>
      <path id="Path_681" data-name="Path 681" d="M221.159,415.658c.056-.362.218-1.336.543-3.336.181-1.067.4-2.366.682-3.86.144-.752.3-1.545.492-2.385.1-.422.2-.849.325-1.29.06-.218.125-.436.2-.659a1.953,1.953,0,0,1,.343-.659l.032.162c-4.779-1.7-10.755-3.939-17.121-6.626-3.916-1.666-7.609-3.345-10.862-5.1a35.267,35.267,0,0,1-4.454-2.761c-1.318-.974-2.5-1.949-3.6-2.784a19.545,19.545,0,0,0-5.647-3.313,9.589,9.589,0,0,0-.988-.292,5.977,5.977,0,0,0-.738-.158l-.464-.084-.158-.037a.71.71,0,0,1,.162,0l.464.06a5.425,5.425,0,0,1,.752.134,8.569,8.569,0,0,1,1,.274,13.559,13.559,0,0,1,2.6,1.155,26.912,26.912,0,0,1,3.123,2.111c1.114.84,2.292,1.8,3.614,2.784a35.164,35.164,0,0,0,4.44,2.728c3.248,1.735,6.936,3.41,10.848,5.071,6.361,2.682,12.328,4.941,17.093,6.663l.135.051-.1.111a1.917,1.917,0,0,0-.292.585c-.079.213-.144.431-.209.645-.125.431-.232.863-.329,1.276-.195.835-.362,1.629-.51,2.376-.3,1.494-.529,2.784-.724,3.851s-.353,1.879-.464,2.459c-.056.283-.1.5-.135.645a1.576,1.576,0,0,1-.056.2Z" transform="translate(-161.119 -287.078)" fill="#455a64"/>
      <path id="Path_682" data-name="Path 682" d="M285.787,397.461h-.125l-.348-.056c-.306-.042-.752-.153-1.341-.213a26.106,26.106,0,0,0-4.978-.176,37.168,37.168,0,0,0-7.294,1.206c-1.346.357-2.747.784-4.176,1.281s-2.9,1.067-4.394,1.666a40.385,40.385,0,0,1-4.477,1.48c-1.471.4-2.9.719-4.278.984-2.747.538-5.248.868-7.345,1.123s-3.8.427-4.974.548l-1.355.135-.353.028a.4.4,0,0,1-.121,0h.116l.353-.051,1.345-.181,4.965-.622c2.1-.278,4.589-.626,7.321-1.174,1.369-.269,2.784-.589,4.259-1a41.632,41.632,0,0,0,4.454-1.471c1.494-.6,2.965-1.174,4.408-1.666s2.844-.928,4.2-1.276a36.145,36.145,0,0,1,7.34-1.155,24.556,24.556,0,0,1,5,.251c.589.074,1.03.2,1.336.26l.348.079A.416.416,0,0,1,285.787,397.461Z" transform="translate(-193.538 -294.78)" fill="#455a64"/>
      <path id="Path_683" data-name="Path 683" d="M242.787,387.549c0,.158-1,.413-2.686.571a35.123,35.123,0,0,1-13.047-1.392c-1.61-.51-2.552-.979-2.505-1.132.107-.334,4.083.724,9.094,1.243S242.754,387.2,242.787,387.549Z" transform="translate(-185.131 -288.72)" fill="#263238"/>
      <path id="Path_684" data-name="Path 684" d="M282.727,385.83a5.106,5.106,0,0,1-.742.2,8.613,8.613,0,0,0-.868.223c-.334.1-.719.2-1.132.348a28.2,28.2,0,0,0-2.867,1.137c-1.049.5-2.181,1.095-3.336,1.782a52.667,52.667,0,0,0-5.619,3.953c-.687.547-1.239,1-1.615,1.318a4.4,4.4,0,0,1-.608.464,5.148,5.148,0,0,1,.543-.543c.362-.339.9-.812,1.573-1.392a44.653,44.653,0,0,1,5.6-4.032,35.615,35.615,0,0,1,3.364-1.772,24.47,24.47,0,0,1,2.909-1.1c.418-.139.807-.232,1.151-.315a7.6,7.6,0,0,1,.882-.186,4.451,4.451,0,0,1,.761-.083Z" transform="translate(-207.319 -288.88)" fill="#455a64"/>
      <path id="Path_685" data-name="Path 685" d="M246.909,401.593a5.363,5.363,0,0,1-1.332-.38,28.6,28.6,0,0,1-3.039-1.369L239.6,398.3a10.435,10.435,0,0,1-1.211-.659,6.76,6.76,0,0,1,1.29.506c.775.353,1.823.891,2.979,1.48s2.208,1.1,2.993,1.429A11.274,11.274,0,0,1,246.909,401.593Z" transform="translate(-192.552 -295.21)" fill="#455a64"/>
      <path id="Path_686" data-name="Path 686" d="M260.643,370.72c.037,0-.028.7-.1,1.814s-.135,2.663-.1,4.371.158,3.248.269,4.371a18.064,18.064,0,0,1,.172,1.81,1.771,1.771,0,0,1-.121-.464c-.065-.306-.139-.756-.218-1.313a37.05,37.05,0,0,1-.343-4.385,38.139,38.139,0,0,1,.172-4.389c.06-.561.116-1.011.167-1.322A2.064,2.064,0,0,1,260.643,370.72Z" transform="translate(-204.24 -280.78)" fill="#455a64"/>
      <path id="Path_687" data-name="Path 687" d="M264.887,371.97a2.165,2.165,0,0,0-.2.213,1.317,1.317,0,0,0-.3.682,1.285,1.285,0,0,0,.292,1.016,1.2,1.2,0,0,0,1.981-.733,1.3,1.3,0,0,0-.464-.96,1.313,1.313,0,0,0-.668-.325c-.181-.028-.283,0-.288-.033s.1-.06.3-.06a1.276,1.276,0,0,1,.77.288,1.342,1.342,0,1,1-1.814,1.972,1.419,1.419,0,0,1-.292-1.192,1.28,1.28,0,0,1,.4-.724C264.771,371.988,264.882,371.96,264.887,371.97Z" transform="translate(-206.373 -281.343)" fill="#455a64"/>
      <path id="Path_688" data-name="Path 688" d="M262.939,355.729a2.643,2.643,0,0,1-.362.464,14.085,14.085,0,0,1-1.113,1.178,17.376,17.376,0,0,1-1.856,1.536,20.142,20.142,0,0,1-2.529,1.526,19.72,19.72,0,0,1-2.737,1.1,17.628,17.628,0,0,1-2.348.557,13.276,13.276,0,0,1-1.61.181,3.065,3.065,0,0,1-.594,0c0-.046.84-.093,2.176-.353a20.463,20.463,0,0,0,2.32-.6,19.829,19.829,0,0,0,7.062-4.069C262.359,356.346,262.9,355.7,262.939,355.729Z" transform="translate(-198.662 -272.744)" fill="#263238"/>
      <path id="Path_689" data-name="Path 689" d="M292.242,366.766c0,.07-.835.07-1.819.32s-1.726.622-1.763.561a4.821,4.821,0,0,1,3.582-.882Z" transform="translate(-219.498 -278.631)" fill="#263238"/>
      <g id="Group_1756" data-name="Group 1756" transform="translate(52.571 83.319)" opacity="0.3">
        <path id="Path_690" data-name="Path 690" d="M253.6,362.426a17.77,17.77,0,0,0,10.342-5.976,4.176,4.176,0,0,1-1.016,4.259c1.178.557,2.561.186,3.851,0s2.867,0,3.484,1.146a136.407,136.407,0,0,1-17.362.5" transform="translate(-252.9 -356.45)"/>
      </g>
      <path id="Path_691" data-name="Path 691" d="M214.614,347.477a6.517,6.517,0,0,0-2-1.294,6.431,6.431,0,0,0-2.538-.432,6.96,6.96,0,0,0-3.03.817,12.9,12.9,0,0,0-4.139,3.985,12.394,12.394,0,0,0-.928,1.513,3.751,3.751,0,0,1-.32.566,3.249,3.249,0,0,1,.237-.608,10.205,10.205,0,0,1,.854-1.568c.431-.622.988-1.318,1.629-2.079a9.038,9.038,0,0,1,2.543-2.028,7.035,7.035,0,0,1,3.141-.821,6.423,6.423,0,0,1,2.608.5,4.97,4.97,0,0,1,1.5.96,2.64,2.64,0,0,1,.334.353C214.586,347.426,214.623,347.473,214.614,347.477Z" transform="translate(-172.863 -267.276)" fill="#263238"/>
      <path id="Path_692" data-name="Path 692" d="M248.277,253.81l-6.477,1.378,3.239,12.124,11.469,2.464,7.869-5.582,1.081-6.686-6.746-2.552Z" transform="translate(-194.379 -218.113)" fill="#ffbe9d"/>
      <path id="Path_693" data-name="Path 693" d="M224.339,255.71s4.385,12.731,12.485,11.553,7.424-9.428,7.424-9.428,8.454,2.58,11.066,5.322,1.072,8.7,1.072,8.7l-2.19,10.773-4.77,20.637s1.823,5.633-2.839,7.025l-1.471-2.32-27.964.789s-5.981,6.895-7.846,4.519a34.662,34.662,0,0,1-3.656-7.015L218.5,257.236Z" transform="translate(-175.002 -219.132)" fill="#455a64"/>
      <path id="Path_694" data-name="Path 694" d="M302.607,268.25c.227.13,19.853,14.383,19.853,14.383s-1.54,11.729,7.888,9.864c0,0-3.8,9.808-8.955,7.748-1.466-.585-19.556-12.031-19.556-12.031L298,280.044Z" transform="translate(-224.504 -225.853)" fill="#455a64"/>
      <path id="Path_695" data-name="Path 695" d="M220.34,257.06a11.6,11.6,0,0,0-1.192.084c-3.842.371-18.021,3.308-19.334,13.316-.687,5.234-.882,20.54-1.624,26.957,0,0,1.183,8.918,1.624,10.569.784,2.942,14.991-1.772,14.991-1.772l.028-28.3,5.076-20.837" transform="translate(-171.003 -219.855)" fill="#455a64"/>
      <path id="Path_696" data-name="Path 696" d="M226.5,312.48a.682.682,0,0,1,0,.227,6.107,6.107,0,0,0,.046.659,9.5,9.5,0,0,0,.6,2.32c.362.956.928,2.041,1.466,3.285a14.842,14.842,0,0,1,.742,2.014,12.326,12.326,0,0,1,.385,2.269,26.96,26.96,0,0,1-.116,4.426c-.116,1.355-.227,2.575-.394,3.591a16,16,0,0,1-.561,2.371c-.093.274-.172.464-.232.622a.8.8,0,0,1-.1.209s.088-.306.246-.858a18.008,18.008,0,0,0,.464-2.371c.148-1.011.241-2.227.348-3.577a28.982,28.982,0,0,0,.093-4.394,12.2,12.2,0,0,0-.371-2.227,15.142,15.142,0,0,0-.719-1.986c-.538-1.239-1.076-2.343-1.424-3.313a8.63,8.63,0,0,1-.529-2.385,3.872,3.872,0,0,1,0-.663A1.276,1.276,0,0,1,226.5,312.48Z" transform="translate(-186.14 -249.562)" fill="#263238"/>
      <path id="Path_697" data-name="Path 697" d="M227.977,304.78c.042,0,.074.719.237,1.856a24.871,24.871,0,0,0,1.035,4.4c.144.422.292.826.464,1.216a2.584,2.584,0,0,0,.116.264l.167.255a6,6,0,0,1,.3.524,4.393,4.393,0,0,1,.524,2,3.577,3.577,0,0,1-.274,1.392,1.994,1.994,0,0,1-.255.464,4.82,4.82,0,0,0,.357-1.809,4.366,4.366,0,0,0-.548-1.907c-.088-.167-.19-.334-.3-.5l-.167-.255a1.688,1.688,0,0,1-.139-.3c-.162-.39-.311-.8-.464-1.225a20.878,20.878,0,0,1-.974-4.463c-.065-.58-.083-1.058-.088-1.392A2.255,2.255,0,0,1,227.977,304.78Z" transform="translate(-186.959 -245.434)" fill="#263238"/>
      <path id="Path_698" data-name="Path 698" d="M221.827,285.237c-.037,0-.251-.58-.668-1.494a21,21,0,0,0-1.963-3.406,21.345,21.345,0,0,0-2.575-2.965c-.728-.7-1.22-1.09-1.192-1.123a1.659,1.659,0,0,1,.371.241,11.535,11.535,0,0,1,.928.756,17.571,17.571,0,0,1,4.579,6.426,11.79,11.79,0,0,1,.408,1.132,1.79,1.79,0,0,1,.111.431Z" transform="translate(-180.243 -230.142)" fill="#263238"/>
      <path id="Path_699" data-name="Path 699" d="M314.91,277.7a5.233,5.233,0,0,1-.093,1.123c-.084.691-.2,1.642-.311,2.7s-.195,2.009-.255,2.7a5.378,5.378,0,0,1-.139,1.118,5.041,5.041,0,0,1-.032-1.127c0-.7.074-1.661.186-2.719s.255-2.014.38-2.7A5.039,5.039,0,0,1,314.91,277.7Z" transform="translate(-233.114 -230.919)" fill="#263238"/>
      <path id="Path_700" data-name="Path 700" d="M316.126,303.374c0,.042-.612.1-1.564.371a7.391,7.391,0,0,0-3.271,1.916,9.032,9.032,0,0,0-1.248,1.7,12.991,12.991,0,0,0-.715,1.577l-.227.631c-.056.172-.1.334-.148.464a1.681,1.681,0,0,1-.153.408,1.3,1.3,0,0,1,.065-.431l.107-.5.195-.65a11.244,11.244,0,0,1,.682-1.629,8.564,8.564,0,0,1,1.271-1.717,7.025,7.025,0,0,1,3.4-1.912,4.869,4.869,0,0,1,.668-.135,4.17,4.17,0,0,1,.506-.065A1.392,1.392,0,0,1,316.126,303.374Z" transform="translate(-230.293 -244.678)" fill="#263238"/>
      <path id="Path_701" data-name="Path 701" d="M349.989,313.955a2.781,2.781,0,0,1-.311-.52,7.132,7.132,0,0,1-.325-.636c-.116-.255-.255-.534-.376-.863a16.894,16.894,0,0,1-.747-2.343,19.193,19.193,0,0,1-.464-2.983,18.88,18.88,0,0,1,.051-3.011,17.345,17.345,0,0,1,.427-2.422c.074-.343.181-.645.26-.928a5.839,5.839,0,0,1,.232-.673,2.9,2.9,0,0,1,.241-.557c.046,0-.264.821-.566,2.176a19.722,19.722,0,0,0-.371,2.4,20.992,20.992,0,0,0-.037,2.979,20.759,20.759,0,0,0,.436,2.946,19.448,19.448,0,0,0,.687,2.32C349.618,313.176,350.031,313.937,349.989,313.955Z" transform="translate(-251.161 -242.347)" fill="#263238"/>
      <path id="Path_702" data-name="Path 702" d="M340.964,310.54a1.958,1.958,0,0,1-.186-.5,9.788,9.788,0,0,1-.288-1.392,10.977,10.977,0,0,1,.436-4.714,10.672,10.672,0,0,1,2.371-4.1,2.032,2.032,0,0,1,1.276-.687.9.9,0,0,1,.394.079c.079.042.121.07.116.079a1.392,1.392,0,0,0-.506-.065,2.065,2.065,0,0,0-1.155.71,11.287,11.287,0,0,0-2.264,4.055,11.84,11.84,0,0,0-.5,4.64C340.779,309.807,341.006,310.526,340.964,310.54Z" transform="translate(-247.235 -242.416)" fill="#263238"/>
      <path id="Path_703" data-name="Path 703" d="M261.83,318.72a2.184,2.184,0,0,1-.116.552,5.471,5.471,0,0,1-.186.631,8.619,8.619,0,0,1-.311.817,12.951,12.951,0,0,1-1.058,2.014,13.734,13.734,0,0,1-3.883,3.972,13.1,13.1,0,0,1-1.99,1.109,7.769,7.769,0,0,1-.812.325,4.2,4.2,0,0,1-.626.2,2.781,2.781,0,0,1-.548.13c0-.046.761-.255,1.912-.812a14.577,14.577,0,0,0,1.939-1.137,16.5,16.5,0,0,0,2.1-1.772,16.1,16.1,0,0,0,1.721-2.139,14.244,14.244,0,0,0,1.09-1.963C261.593,319.485,261.784,318.706,261.83,318.72Z" transform="translate(-200.008 -252.906)" fill="#263238"/>
      <g id="Group_1757" data-name="Group 1757" transform="translate(41.247 59.54)" opacity="0.3">
        <path id="Path_704" data-name="Path 704" d="M233,316.066l-2.672-9.743c-.13-.464-.348-1.035-.835-1.123a.928.928,0,0,0-.951.8,5.229,5.229,0,0,0,0,1.424,11.161,11.161,0,0,0,1.364,5.2c1.925,3.2.659,4.756.659,4.756a43.866,43.866,0,0,1-1.392,13.219l1.146,4.83c1.086-3.591,3.568-6.584,3.986-10.314C234.626,322.055,233.833,319.026,233,316.066Z" transform="translate(-228.495 -305.199)"/>
      </g>
      <g id="Group_1758" data-name="Group 1758" transform="translate(79.203 62.323)" opacity="0.3">
        <path id="Path_705" data-name="Path 705" d="M310.3,312.443c3.178,1.652,6,3.934,9.1,5.7a14.516,14.516,0,0,0-5.7-6.37,3.605,3.605,0,0,0-2.153-.571c-.752.107-1.29.529-1.174,1.276" transform="translate(-310.3 -311.198)"/>
      </g>
      <g id="Group_1759" data-name="Group 1759" transform="translate(93.123 56.39)" opacity="0.3">
        <path id="Path_706" data-name="Path 706" d="M344.593,298.6c-1.086-.028-1.9.96-2.436,1.907a14.666,14.666,0,0,0-1.754,8.853c.065.547.269,1.206.812,1.313a.928.928,0,0,0,.96-.571,2.635,2.635,0,0,0,.181-1.174,38.4,38.4,0,0,1,.139-5.568,8.309,8.309,0,0,1,2.32-4.946" transform="translate(-340.303 -298.41)"/>
      </g>
      <path id="Path_707" data-name="Path 707" d="M243.78,305.141h.111l.32-.023,1.257-.065,4.751-.218,16.828-.715h.111v.107c.139,5.66.3,12.175.464,19.069v.812h-.079a164.72,164.72,0,0,0-20.721,1.55h-.088l-.023-.088a74.091,74.091,0,0,1-2.473-14.921c-.111-1.828-.13-3.248-.13-4.241v-1.5a.394.394,0,0,1,0,.1v1.4c0,.979.06,2.413.186,4.231a76.161,76.161,0,0,0,2.552,14.88l-.116-.079a161.225,161.225,0,0,1,20.814-1.591l-.121.125v-.691c-.162-6.895-.311-13.409-.464-19.069l.111.107-16.833.626-4.756.158-1.257.037h-.431Z" transform="translate(-195.441 -245.081)" fill="#fff"/>
      <path id="Path_708" data-name="Path 708" d="M254.275,320.4c-.065,0-.645-3.123-1.294-7s-1.123-7.029-1.058-7.043.645,3.122,1.294,7.006S254.322,320.4,254.275,320.4Z" transform="translate(-199.803 -246.281)" fill="#fff"/>
      <path id="Path_709" data-name="Path 709" d="M257.543,343.639a13.957,13.957,0,0,1-.515-2.529,14.158,14.158,0,0,1-.278-2.57,13.952,13.952,0,0,1,.515,2.533A13.173,13.173,0,0,1,257.543,343.639Z" transform="translate(-202.393 -263.531)" fill="#fff"/>
      <path id="Path_710" data-name="Path 710" d="M265.707,316.839a1.424,1.424,0,0,1-.13-.431c-.07-.278-.158-.691-.255-1.2-.195-1.016-.413-2.427-.571-3.995s-.218-3-.232-4.027v-1.225a1.99,1.99,0,0,1,.042-.464,12.793,12.793,0,0,1,.116,1.666c.056,1.03.144,2.45.3,4.013s.348,2.969.5,3.99a14.1,14.1,0,0,1,.232,1.67Z" transform="translate(-206.557 -245.82)" fill="#fff"/>
      <path id="Path_711" data-name="Path 711" d="M265,340.578a23.017,23.017,0,0,1-.524-3.28,21.958,21.958,0,0,1-.288-3.308,23.164,23.164,0,0,1,.524,3.28A21.955,21.955,0,0,1,265,340.578Z" transform="translate(-206.381 -261.092)" fill="#fff"/>
      <path id="Path_712" data-name="Path 712" d="M274.662,324.947a5.527,5.527,0,0,1-.093-.766l-.181-2.088c-.153-1.758-.38-4.176-.687-6.871s-.64-5.1-.891-6.853c-.121-.844-.223-1.545-.3-2.074a5.038,5.038,0,0,1-.083-.766,4.3,4.3,0,0,1,.176.752c.1.464.223,1.188.371,2.06.3,1.749.654,4.176.965,6.853s.506,5.1.617,6.89c.051.882.088,1.6.1,2.092A4.084,4.084,0,0,1,274.662,324.947Z" transform="translate(-210.798 -245.836)" fill="#fff"/>
      <path id="Path_713" data-name="Path 713" d="M285.8,325.069a4.788,4.788,0,0,1-.037-.779v-2.125c0-1.791-.065-4.269-.19-7s-.32-5.2-.464-6.987c-.074-.858-.135-1.573-.181-2.111a5.406,5.406,0,0,1-.042-.779,4.238,4.238,0,0,1,.135.766c.074.5.162,1.22.26,2.111.195,1.782.408,4.255.543,6.987s.148,5.215.121,7.011c0,.9-.033,1.624-.056,2.125a5.334,5.334,0,0,1-.088.78Z" transform="translate(-217.476 -245.708)" fill="#fff"/>
      <g id="Group_1760" data-name="Group 1760" transform="translate(52.501 66.58)" opacity="0.3">
        <path id="Path_714" data-name="Path 714" d="M252.908,329.39a3.893,3.893,0,0,0,2.445.594,7.768,7.768,0,0,0,2.468-.645,7.456,7.456,0,0,0,2.807-1.856,6.528,6.528,0,0,0,1.392-3.285,19.294,19.294,0,0,0,.121-3.624.237.237,0,0,0-.037-.148.181.181,0,0,0-.26,0,.58.58,0,0,0-.144.255,13.455,13.455,0,0,1-8.95,8.463" transform="translate(-252.75 -320.371)"/>
      </g>
      <path id="Path_715" data-name="Path 715" d="M223.927,382.069l-2.835-5.317-6.375-29.838s-5.865-3.368-10.671,4.013c-.19.3,6.607,21.667,8.5,27.611l.264,5.688s-.334,6.732,0,7.321a2.738,2.738,0,0,0,1.178.928,1.636,1.636,0,0,0,1.684,1.856s.167,1.856,1.6,1.6a2.751,2.751,0,0,0,1.939-1.178s0,2.352,1.262,2.1,1.466-1.262,1.7-1.6a26.077,26.077,0,0,0,.5-3.791l-.023-5.7,3.285,2.663c.928.464,2.343,1.058,3.132.348Z" transform="translate(-174.14 -267.608)" fill="#ffbe9d"/>
      <path id="Path_716" data-name="Path 716" d="M244.029,430.92a10.254,10.254,0,0,1,.186,3.071c-.037.789-.07,1.508-.1,2.167a3.539,3.539,0,0,1-.084.9,14.228,14.228,0,0,1-.056-3.072C244.057,432.293,243.955,430.929,244.029,430.92Z" transform="translate(-195.514 -313.049)" fill="#eb996e"/>
      <path id="Path_717" data-name="Path 717" d="M236.26,439.48a32.992,32.992,0,0,1,.074,5.637,32.986,32.986,0,0,1-.074-5.637Z" transform="translate(-191.364 -317.637)" fill="#eb996e"/>
      <path id="Path_718" data-name="Path 718" d="M229.369,441.71a7.673,7.673,0,0,1-.376,3.9c-.065,0,.1-.877.2-1.949A17.806,17.806,0,0,1,229.369,441.71Z" transform="translate(-187.507 -318.833)" fill="#eb996e"/>
      <path id="Path_719" data-name="Path 719" d="M225.25,440.29a6.769,6.769,0,0,1-.251,2.538,3.378,3.378,0,0,1,0-1.281A3.531,3.531,0,0,1,225.25,440.29Z" transform="translate(-185.341 -318.072)" fill="#eb996e"/>
    </g>
    <g id="freepik--speech-bubble--inject-34" transform="translate(84.329 76.552)">
      <path id="Path_720" data-name="Path 720" d="M191.3,145.539l-4.269-7.526a20.155,20.155,0,1,0-4.83,5.373h0Z" transform="translate(-149.662 -107.26)" fill="#fff"/>
      <path id="Path_721" data-name="Path 721" d="M191.239,145.506l-9.117-2.088a.056.056,0,0,1-.046-.07v-.023h0l.084.084a20.458,20.458,0,0,1-4.139,2.5,20.174,20.174,0,0,1-5.5,1.582,17.937,17.937,0,0,1-3.183.158c-.552-.028-1.109-.042-1.67-.088l-1.7-.26a20.3,20.3,0,0,1-12.578-8.073,20.085,20.085,0,0,1-3.4-7.776,20.522,20.522,0,0,1,.237-8.955,19.877,19.877,0,0,1,4.315-8.277l.821-.928c.274-.306.594-.557.886-.835a7.272,7.272,0,0,1,.928-.793l.965-.724a8.513,8.513,0,0,1,1-.663l1.021-.617,1.067-.52a9.369,9.369,0,0,1,1.081-.464,20.508,20.508,0,0,1,9.02-1.392,19.816,19.816,0,0,1,8.282,2.445,20.415,20.415,0,0,1,9.535,11.78,21.671,21.671,0,0,1,.877,6.547,20.1,20.1,0,0,1-.984,5.651,20.46,20.46,0,0,1-2.023,4.333v-.06l4.217,7.553-4.329-7.521a.06.06,0,0,1,0-.056,20.5,20.5,0,0,0,1.981-4.315,19.879,19.879,0,0,0,.956-5.614,21.712,21.712,0,0,0-.886-6.5,20.262,20.262,0,0,0-9.474-11.622,19.63,19.63,0,0,0-8.189-2.408,20.308,20.308,0,0,0-8.918,1.392,9.5,9.5,0,0,0-1.067.464l-1.053.51-1.011.612a8.67,8.67,0,0,0-.988.654l-.956.715c-.325.232-.6.529-.9.789a8.58,8.58,0,0,0-.872.821l-.812.9a19.64,19.64,0,0,0-4.269,8.18,20.322,20.322,0,0,0-.241,8.848,19.914,19.914,0,0,0,3.355,7.693,20.141,20.141,0,0,0,12.434,8.017l1.684.26c.557.046,1.109.06,1.652.093a17.743,17.743,0,0,0,3.164-.148,20.006,20.006,0,0,0,5.479-1.54A20.414,20.414,0,0,0,182.1,143.3a.06.06,0,0,1,.088,0,.069.069,0,0,1,0,.074h0l-.032-.1Z" transform="translate(-149.604 -107.228)" fill="#263238"/>
      <path id="Path_722" data-name="Path 722" d="M176.1,142.2a2.783,2.783,0,0,0-1-.26,3,3,0,0,0-2.761,1.021c2.176,1.262,5.141,2.937,7.261,4.148l2.677-1.531C180.348,144.511,177.926,143.175,176.1,142.2Z" transform="translate(-161.791 -125.812)" fill="#aee5d1"/>
      <g id="Group_1761" data-name="Group 1761" transform="translate(10.549 16.086)" opacity="0.3">
        <path id="Path_723" data-name="Path 723" d="M176.1,142.2a2.783,2.783,0,0,0-1-.26,3,3,0,0,0-2.761,1.021c2.176,1.262,5.141,2.937,7.261,4.148l2.677-1.531C180.348,144.511,177.926,143.175,176.1,142.2Z" transform="translate(-172.34 -141.898)" fill="#feba30"/>
      </g>
      <path id="Path_724" data-name="Path 724" d="M184.135,146.8l-.1-.084c-.668-.385-1.392-1.118-2.051-1.1-.255,0-.534.227-1.2.6-1.1.626-2.965,1.717-4.078,2.32a4.1,4.1,0,0,1-3.187.575,4.565,4.565,0,0,1-1.494-.9l12.1-7.015c-.06-.181-.125-.353-.186-.529a3.466,3.466,0,1,1,2.9,2.32,1.582,1.582,0,0,0-.807.162c-.464.223-.891.506-1.443.821.928.418,1.564,1.086,2.654.984a3.271,3.271,0,0,1,3.294,2.4,3.466,3.466,0,1,1-6.6-.079C184,147.133,184.079,146.975,184.135,146.8Zm3.09-5.568a1.656,1.656,0,0,0,1.675-1.689,1.68,1.68,0,0,0-1.661-1.652,1.707,1.707,0,0,0-1.689,1.7,1.684,1.684,0,0,0,1.675,1.633Zm0,8.853a1.68,1.68,0,0,0,1.693-1.619,1.652,1.652,0,0,0-1.642-1.721,1.689,1.689,0,0,0-1.707,1.61,1.707,1.707,0,0,0,1.638,1.721Z" transform="translate(-161.625 -122.685)" fill="#feba30"/>
      <path id="Path_725" data-name="Path 725" d="M193.1,151.97a1.079,1.079,0,0,0-.367-.557.705.705,0,0,0-.654-.079.687.687,0,0,0,0,1.276.705.705,0,0,0,.654-.079c.343-.246.325-.571.367-.561s.037.074,0,.2a.775.775,0,0,1-.278.492.868.868,0,0,1-.835.153.9.9,0,0,1,0-1.693.868.868,0,0,1,.835.153.766.766,0,0,1,.278.487C193.133,151.9,193.109,151.97,193.1,151.97Z" transform="translate(-171.996 -130.733)" fill="#263238"/>
      <path id="Path_726" data-name="Path 726" d="M193.934,151.73a2.389,2.389,0,0,1-.246.162l-.691.418-2.287,1.346-2.32,1.318-.705.39a1.723,1.723,0,0,1-.264.135,1.959,1.959,0,0,1,.246-.167l.691-.418,2.287-1.341,2.32-1.318.705-.394a1.923,1.923,0,0,1,.264-.13Z" transform="translate(-169.874 -131.082)" fill="#263238"/>
      <path id="Path_727" data-name="Path 727" d="M183.655,147.73a.926.926,0,0,1-.111.079l-.334.209-1.234.766c-1.039.631-2.482,1.494-4.1,2.408l-4.134,2.348-1.276.677-.343.186-.121.06s.037-.028.111-.074l.334-.2,1.243-.728,4.125-2.371c1.615-.928,3.062-1.768,4.115-2.38l1.248-.719.343-.195Z" transform="translate(-161.609 -128.938)" fill="#263238"/>
    </g>
    <g id="freepik--Stars--inject-34" transform="translate(180.532 86.157)">
      <path id="Path_728" data-name="Path 728" d="M359.442,202.18l.882,1.61,1.61.882-1.61.882-.882,1.61-.882-1.61-1.61-.882,1.61-.882Z" transform="translate(-356.95 -167.73)" fill="#feba30"/>
      <path id="Path_729" data-name="Path 729" d="M375,153.958l.914-.06.738-.548.06.919.547.738-.919.06-.738.543-.06-.914Z" transform="translate(-366.625 -141.556)" fill="#feba30"/>
      <path id="Path_730" data-name="Path 730" d="M694.86,311.758l.914-.06.738-.548.06.919.547.738-.919.06-.738.543-.06-.914Z" transform="translate(-538.079 -226.141)" fill="#feba30"/>
      <path id="Path_731" data-name="Path 731" d="M469.55,213.033l.914-.06.742-.543.06.914.543.738-.914.06-.742.543-.056-.914Z" transform="translate(-417.307 -173.224)" fill="#feba30"/>
      <path id="Path_732" data-name="Path 732" d="M481.57,128.533l.914-.06.738-.543.06.914.543.738-.914.06-.738.547-.06-.919Z" transform="translate(-423.75 -127.93)" fill="#feba30"/>
      <path id="Path_733" data-name="Path 733" d="M421.02,179.1l1.392-.8.738-1.424.8,1.392,1.429.742-1.392.8-.742,1.429-.8-1.392Z" transform="translate(-391.293 -154.163)" fill="#feba30"/>
      <path id="Path_734" data-name="Path 734" d="M673.07,349.607l1.392-.8.738-1.424.8,1.392,1.424.738-1.392.8-.738,1.424-.8-1.392Z" transform="translate(-526.399 -245.561)" fill="#feba30"/>
      <path id="Path_735" data-name="Path 735" d="M658,294.757l1.392-.8.742-1.424.8,1.392,1.424.738-1.392.8-.742,1.429-.8-1.4Z" transform="translate(-518.321 -216.16)" fill="#feba30"/>
    </g>
  </g>
</svg>
