<svg xmlns="http://www.w3.org/2000/svg" width="20" height="18.601" viewBox="0 0 20 18.601">
  <path id="home" d="M22,10.76V17.6a3.333,3.333,0,0,1-3.333,3.333H17.444a1,1,0,0,1-1-1v-.222a1,1,0,0,1,1-1h1.222A1.111,1.111,0,0,0,19.778,17.6V10.76a1.111,1.111,0,0,0-.436-.883l-6.667-5.1a1.111,1.111,0,0,0-1.35,0l-6.667,5.1a1.111,1.111,0,0,0-.436.883V17.6a1.111,1.111,0,0,0,1.111,1.111H6.556a1,1,0,0,1,1,1v.222a1,1,0,0,1-1,1H5.333A3.333,3.333,0,0,1,2,17.6V10.76A3.333,3.333,0,0,1,3.309,8.112l6.667-5.1a3.333,3.333,0,0,1,4.05,0l6.667,5.1A3.333,3.333,0,0,1,22,10.76Zm-10.111.392h.222a3,3,0,0,1,3,3v3.556a3,3,0,0,1-3,3h-.222a3,3,0,0,1-3-3V14.152A3,3,0,0,1,11.889,11.152Zm1.222,3a1,1,0,0,0-1-1h-.222a1,1,0,0,0-1,1v3.556a1,1,0,0,0,1,1h.222a1,1,0,0,0,1-1Z" transform="translate(-2 -2.329)" fill="#424242" fill-rule="evenodd"/>
</svg>
