<svg xmlns="http://www.w3.org/2000/svg" width="8.052" height="8.052" viewBox="0 0 8.052 8.052">
  <path id="icons8-instagram-24" d="M5.237,3A2.215,2.215,0,0,0,3,5.237V8.815a2.215,2.215,0,0,0,2.237,2.237H8.815a2.215,2.215,0,0,0,2.237-2.237V5.237A2.215,2.215,0,0,0,8.815,3Zm0,.895H8.815a1.318,1.318,0,0,1,1.342,1.342V8.815a1.318,1.318,0,0,1-1.342,1.342H5.237A1.318,1.318,0,0,1,3.895,8.815V5.237A1.318,1.318,0,0,1,5.237,3.895Zm4.026.447a.423.423,0,0,0-.447.447.447.447,0,1,0,.895,0A.423.423,0,0,0,9.262,4.342Zm-2.237.447A2.237,2.237,0,1,0,9.262,7.026,2.215,2.215,0,0,0,7.026,4.789Zm0,.895A1.342,1.342,0,1,1,5.684,7.026,1.318,1.318,0,0,1,7.026,5.684Z" transform="translate(-3 -3)" fill="#424242"/>
</svg>
