<svg xmlns="http://www.w3.org/2000/svg" width="20.537" height="20" viewBox="0 0 20.537 20">
  <g id="Logout" transform="translate(0 0)">
    <path id="Logout-2" data-name="Logout" d="M4.434,0A4.435,4.435,0,0,0,0,4.226l0,.209v11.13A4.436,4.436,0,0,0,4.226,20l.209,0H9.309a4.435,4.435,0,0,0,4.431-4.226l0-.209v-.932a.75.75,0,0,0-1.493-.1l-.007.1v.932A2.935,2.935,0,0,1,9.482,18.5l-.173,0H4.434A2.935,2.935,0,0,1,1.5,15.738l0-.173V4.435A2.935,2.935,0,0,1,4.262,1.5L4.434,1.5H9.319a2.925,2.925,0,0,1,2.921,2.752l0,.172v.943a.751.751,0,0,0,1.494.1l.006-.1V4.424A4.426,4.426,0,0,0,9.534,0L9.319,0ZM16.328,6.555a.75.75,0,0,0-.07.977l.072.085L17.97,9.25H7.746a.75.75,0,0,0-.1,1.493l.1.006H17.972l-1.642,1.634a.75.75,0,0,0-.076.977l.073.085a.751.751,0,0,0,.976.075l.084-.072,2.929-2.915a.747.747,0,0,0,.214-.436h0l0-.017v0l0-.018h0q0-.028,0-.057h0v0s0-.01,0-.015v0s0-.008,0-.012V9.92a.746.746,0,0,0-.073-.252v0l-.006-.013-.006-.01,0,0-.008-.014h0l-.008-.013h0L20.42,9.6h0l-.008-.012v0L20.4,9.572l0,0-.007-.009,0,0,0,0h0a.754.754,0,0,0-.09-.1l-2.911-2.9a.749.749,0,0,0-1.06,0Z" transform="translate(20.537 20) rotate(180)" fill="#424242"/>
  </g>
</svg>
