<svg id="Iconly_Bulk_Scan" data-name="Iconly/Bulk/Scan" xmlns="http://www.w3.org/2000/svg" width="22.234" height="17.787" viewBox="0 0 22.234 17.787">
  <g id="Scan">
    <path id="Combined_Shape" data-name="Combined Shape" d="M4.462,7.434a.279.279,0,0,1-.273-.266V5.937A2.268,2.268,0,0,1,6.483,3.7h5.582a2.321,2.321,0,0,1,1.626.655,2.217,2.217,0,0,1,.669,1.584V7.168a.281.281,0,0,1-.277.266ZM17.01,5.694V3.86a2.44,2.44,0,0,0-2.487-2.384h-1.61a.754.754,0,0,1-.769-.736A.755.755,0,0,1,12.913,0h1.61a3.948,3.948,0,0,1,4.025,3.86V5.694a.77.77,0,0,1-1.538,0ZM0,5.694V3.856A3.945,3.945,0,0,1,4.017,0H5.664a.754.754,0,0,1,.769.738.753.753,0,0,1-.769.737H4.018a2.436,2.436,0,0,0-2.479,2.38V5.694a.755.755,0,0,1-.769.738A.755.755,0,0,1,0,5.694Z" transform="translate(1.843)" fill="#fff" opacity="0.4"/>
    <path id="Fill_7" data-name="Fill 7" d="M21.465,0H.77A.755.755,0,0,0,0,.738a.754.754,0,0,0,.77.736H1.842V5A3.946,3.946,0,0,0,5.86,8.852H7.506a.739.739,0,1,0,0-1.476H5.862A2.436,2.436,0,0,1,3.382,5V1.475H6.032v.98A2.268,2.268,0,0,0,8.325,4.694h5.583A2.268,2.268,0,0,0,16.2,2.454v-.98h2.651V4.992a2.44,2.44,0,0,1-2.487,2.385h-1.61a.739.739,0,1,0,0,1.476h1.61a3.949,3.949,0,0,0,4.025-3.86V1.475h1.073a.753.753,0,0,0,.769-.736A.754.754,0,0,0,21.465,0" transform="translate(0 8.934)" fill="#fff"/>
  </g>
</svg>
