<svg xmlns="http://www.w3.org/2000/svg" width="26.5" height="26.5" viewBox="0 0 26.5 26.5">
  <g id="Settings_Icon" data-name="Settings Icon" transform="translate(0.75 0.75)">
    <path id="Path_5" data-name="Path 5" d="M13.5,17.045A3.545,3.545,0,1,0,17.045,13.5,3.545,3.545,0,0,0,13.5,17.045Z" transform="translate(-4.545 -4.545)" fill="none" stroke="#424242" stroke-linecap="round" stroke-linejoin="round" stroke-width="1.5"/>
    <path id="Path_6" data-name="Path 6" d="M5.591,17.409a1.875,1.875,0,0,1-.375,2.068l-.068.068a2.274,2.274,0,1,0,3.216,3.216l.068-.068a1.89,1.89,0,0,1,3.2,1.341v.193a2.273,2.273,0,1,0,4.545,0v-.1a1.968,1.968,0,0,1,3.3-1.341l.068.068a2.274,2.274,0,1,0,3.216-3.216l-.068-.068a1.89,1.89,0,0,1,1.341-3.2h.193a2.273,2.273,0,1,0,0-4.545h-.1a1.875,1.875,0,0,1-1.716-1.227,1.875,1.875,0,0,1,.375-2.068l.068-.068a2.274,2.274,0,1,0-3.216-3.216l-.068.068a1.875,1.875,0,0,1-2.068.375h-.091a1.875,1.875,0,0,1-1.136-1.716V3.773a2.273,2.273,0,0,0-4.545,0v.1a1.89,1.89,0,0,1-3.2,1.341l-.068-.068A2.274,2.274,0,1,0,5.239,8.364l.068.068A1.875,1.875,0,0,1,5.682,10.5v.091a1.875,1.875,0,0,1-1.716,1.136H3.773a2.273,2.273,0,1,0,0,4.545h.1a1.875,1.875,0,0,1,1.716,1.136Z" transform="translate(-1.5 -1.5)" fill="none" stroke="#424242" stroke-linecap="round" stroke-linejoin="round" stroke-width="1.5"/>
  </g>
</svg>
