<svg xmlns="http://www.w3.org/2000/svg" width="12.222" height="12.208" viewBox="0 0 12.222 12.208">
  <path id="fi-rr-share" d="M9.821,7.46A2.37,2.37,0,0,0,7.868,8.49L4.557,6.995a2.327,2.327,0,0,0,0-1.774l3.306-1.5a2.37,2.37,0,1,0-.421-1.344,2.357,2.357,0,0,0,.041.4L3.971,4.37a2.374,2.374,0,1,0-.008,3.473L7.487,9.434a2.409,2.409,0,0,0-.04.4A2.374,2.374,0,1,0,9.821,7.46Zm0-6.443A1.357,1.357,0,1,1,8.465,2.373,1.357,1.357,0,0,1,9.821,1.017ZM2.361,7.46A1.357,1.357,0,1,1,3.717,6.1,1.357,1.357,0,0,1,2.361,7.46Zm7.46,3.73a1.357,1.357,0,1,1,1.357-1.357A1.357,1.357,0,0,1,9.821,11.19Z" transform="translate(0.027 0.001)" fill="#424242"/>
</svg>
