<svg xmlns="http://www.w3.org/2000/svg" width="15.507" height="15.487" viewBox="0 0 15.507 15.487">
  <g id="fi-rr-time-past" transform="translate(0.004)">
    <path id="Path_326" data-name="Path 326" d="M11.648,6A.648.648,0,0,0,11,6.648V9.886a.648.648,0,0,0,.19.458l1.943,1.943a.648.648,0,1,0,.916-.916L12.3,9.617V6.648A.648.648,0,0,0,11.648,6Z" transform="translate(-3.878 -2.114)" fill="#415380"/>
    <path id="Path_327" data-name="Path 327" d="M15.419,6.561a7.771,7.771,0,0,0-13.1-4.35V.648a.648.648,0,1,0-1.3,0v2.59a1.3,1.3,0,0,0,1.3,1.3h2.59a.648.648,0,0,0,0-1.3H3.124a6.47,6.47,0,1,1-1.836,5.1.636.636,0,0,0-.642-.569A.652.652,0,0,0,0,8.484,7.771,7.771,0,1,0,15.416,6.561Z" transform="translate(0)" fill="#415380"/>
  </g>
</svg>
