<svg xmlns="http://www.w3.org/2000/svg" width="9.746" height="8.035" viewBox="0 0 9.746 8.035">
  <path id="twitter" d="M9.946,2.994a4.469,4.469,0,0,1-1.277.61,1.846,1.846,0,0,0-2.024-.5A1.788,1.788,0,0,0,5.473,4.8v.4a4.363,4.363,0,0,1-3.66-1.807S.187,6.982,3.847,8.578A4.8,4.8,0,0,1,1,9.376c3.66,1.994,8.133,0,8.133-4.587A1.762,1.762,0,0,0,9.1,4.458a3.065,3.065,0,0,0,.846-1.464Z" transform="translate(-0.6 -2.559)" fill="none" stroke="#424242" stroke-linecap="round" stroke-linejoin="round" stroke-width="0.8"/>
</svg>
