<svg xmlns="http://www.w3.org/2000/svg" width="15.958" height="15.959" viewBox="0 0 15.958 15.959">
  <path id="icons8-whatsapp_1_" data-name="icons8-whatsapp (1)" d="M9.989,2A7.971,7.971,0,0,0,3.082,13.951L2,17.959l4.175-.987a7.965,7.965,0,0,0,3.809.969h0A7.971,7.971,0,1,0,9.989,2Zm0,1.6A6.375,6.375,0,1,1,6.941,15.572L6.4,15.279l-.594.14-1.571.371.383-1.425.173-.639-.33-.573A6.375,6.375,0,0,1,9.987,3.6ZM7.168,6.289a.732.732,0,0,0-.531.249,2.227,2.227,0,0,0-.7,1.66,3.876,3.876,0,0,0,.814,2.06,8.171,8.171,0,0,0,3.4,3c1.682.663,2.024.532,2.389.5a2.009,2.009,0,0,0,1.345-.946,1.673,1.673,0,0,0,.117-.948c-.049-.083-.182-.132-.382-.232s-1.178-.581-1.361-.647-.316-.1-.449.1-.513.647-.63.779-.232.151-.432.051a5.483,5.483,0,0,1-1.6-.99A6,6,0,0,1,8.042,9.553c-.116-.2-.011-.308.089-.407s.2-.233.3-.349a1.385,1.385,0,0,0,.2-.332.369.369,0,0,0-.017-.349c-.049-.1-.437-1.083-.614-1.477-.149-.331-.307-.339-.449-.344C7.433,6.289,7.3,6.289,7.168,6.289Z" transform="translate(-2 -2)" fill="#415380"/>
</svg>
